<?xml version="1.0" encoding="UTF-8" standalone="no"?>
<!DOCTYPE svg  PUBLIC '-//W3C//DTD SVG 1.1//EN'  'http://www.w3.org/Graphics/SVG/1.1/DTD/svg11.dtd'>
<svg xmlns="http://www.w3.org/2000/svg">
<defs>
<font id="Cambria-Italic" horiz-adv-x="1082">
<font-face slope="-12.4" underline-position="-67" font-weight="400" descent="-410" panose-1="2 4 5 3 5 4 6 10 2 4" units-per-em="2048" unicode-range="U+000D-25CA" bbox="-500 -450 2385 1926" x-height="956" underline-thickness="116" font-family="Cambria" ascent="1638" font-style="italic" cap-height="1365"/>
<missing-glyph horiz-adv-x="2048"/>
<glyph glyph-name=".notdef" horiz-adv-x="2048"/>
<glyph glyph-name="glyph1" horiz-adv-x="0"/>
<glyph glyph-name="glyph1" horiz-adv-x="0"/>
<glyph glyph-name="uni000D" horiz-adv-x="2048" unicode=""/>
<glyph glyph-name="space" horiz-adv-x="451" unicode=" "/>
<glyph glyph-name="space" horiz-adv-x="451" unicode=" "/>
<glyph glyph-name="exclam" horiz-adv-x="574" unicode="!" d="M328 232l-51 -232h-190l51 232h190zM589 1365l-270 -949h-99l164 949h205z"/>
<glyph glyph-name="quotedbl" horiz-adv-x="797" unicode='&quot;' d="M880 1431l-160 -467h-106l76 467h190zM551 1431l-161 -467h-106l76 467h191z"/>
<glyph glyph-name="numbersign" horiz-adv-x="1268" unicode="#" d="M577 834l-106 -297h315l106 297h-315zM1022 834l-106 -297h197v-114h-239l-148 -423h-131l150 423h-315l-148 -423h-131l149 423h-187v114h227l107 297h-196v115h236l148 417h131l-150 -417h316l149 417h130l-150 -417h188v-115h-227z"/>
<glyph glyph-name="dollar" horiz-adv-x="1000" unicode="$" d="M593 586l-103 -471q115 12 172 74.5t57 170.5q0 71 -27.5 120.5t-98.5 105.5zM540 816l96 442q-101 -13 -158.5 -76.5t-57.5 -159.5q0 -66 28 -112t92 -94zM760 1344q74 -3 159.5 -21t157.5 -45l-46 -209h-96q-12 92 -62 138.5t-132 51.5l-109 -497q103 -72 153.5 -123 t77 -108.5t26.5 -130.5q0 -100 -49.5 -181.5t-145.5 -132t-223 -57.5l-40 -185h-105l40 184q-162 6 -344 62l48 221h96q14 -96 67.5 -146.5t151.5 -55.5l116 532q-93 68 -135 107.5t-68 79.5t-37 77.5t-11 80.5q0 96 50.5 176t143 128.5t211.5 53.5l41 185h105z"/>
<glyph glyph-name="percent" horiz-adv-x="1757" unicode="%" d="M317 714q0 -68 23 -96.5t74 -28.5q47 0 89 34q60 48 104.5 147.5t73.5 247.5q18 91 18 169q0 62 -22.5 92t-70.5 30q-50 0 -95 -36q-58 -47 -103.5 -149t-74.5 -252q-16 -84 -16 -158zM408 517q-112 0 -167 62.5t-55 186.5q0 79 14 154.5t39.5 143.5t65 128t88 102.5 t103 64.5t112.5 22q222 0 222 -249q0 -72 -9 -128q-17 -106 -59.5 -203.5t-104.5 -165.5q-51 -56 -114 -87t-135 -31zM1570 1365l-1140 -1461h-151l1143 1461h148zM1127 85q0 -68 23 -96.5t74 -28.5q47 0 89 34q60 48 104.5 147.5t73.5 247.5q18 91 18 169q0 62 -22.5 92 t-70.5 30q-50 0 -95 -36q-58 -47 -103.5 -149t-74.5 -252q-16 -84 -16 -158zM1218 -112q-112 0 -167 62.5t-55 186.5q0 79 14 154.5t39.5 143.5t65 128t88 102.5t103 64.5t112.5 22q222 0 222 -249q0 -72 -9 -128q-17 -106 -59.5 -203.5t-104.5 -165.5q-51 -56 -114 -87 t-135 -31z"/>
<glyph glyph-name="ampersand" horiz-adv-x="1350" unicode="&amp;" d="M495 657q-93 -56 -148 -105t-86.5 -108.5t-31.5 -129.5q0 -75 29 -123.5t76 -70t106 -21.5q52 0 98.5 12.5t92 34.5t116.5 70q-40 60 -118 197.5t-134 243.5zM608 805q119 59 189 111.5t101.5 107t31.5 120.5q0 74 -35 113t-102 39q-70 0 -123.5 -37t-82 -101t-28.5 -143 q0 -60 13 -111t36 -99zM798 138q-109 -78 -215 -116t-218 -38q-99 0 -170.5 37.5t-107.5 102t-36 143.5q0 93 44 172.5t130.5 150.5t231.5 149q-31 64 -46.5 127t-15.5 131q0 105 55 194.5t150.5 139.5t212.5 50q130 0 203 -56.5t73 -157.5q0 -88 -46 -157.5t-131 -130.5 t-266 -151q32 -64 107.5 -194.5t128.5 -208.5q96 85 145.5 165.5t49.5 146.5q0 67 -76 73l10 49h241l24 -49q-44 -120 -132.5 -238.5t-212.5 -222.5q36 -59 63 -90t51.5 -43.5t56.5 -12.5q41 0 74.5 12t77.5 42l38 -69q-83 -59 -144.5 -81.5t-127.5 -22.5q-68 0 -118.5 34 t-103.5 120z"/>
<glyph glyph-name="quotesingle" horiz-adv-x="480" unicode="&apos;" d="M563 1431l-172 -477h-107l71 477h208z"/>
<glyph glyph-name="parenleft" horiz-adv-x="761" unicode="(" d="M517 -435q-142 0 -230 51t-127.5 148.5t-39.5 244.5q0 104 18 230q24 162 69.5 361t89.5 330q51 149 110 243.5t129 149.5t159 82q98 30 235 30l-18 -82q-88 0 -145 -20t-102 -60q-52 -46 -99 -129q-55 -99 -106 -259q-44 -138 -88 -337q-36 -163 -58 -293 q-30 -182 -30 -302q0 -117 28.5 -184t82 -94.5t140.5 -27.5z"/>
<glyph glyph-name="parenright" horiz-adv-x="761" unicode=")" d="M254 1435q142 0 230 -51t127.5 -148.5t39.5 -244.5q0 -102 -18 -225q-24 -174 -74 -387q-47 -197 -90 -322q-49 -141 -106.5 -233.5t-128 -147.5t-159.5 -81q-98 -30 -234 -30l18 82q88 0 144.5 20t100.5 59q54 47 102 133q56 101 105.5 258.5t93.5 364.5q35 160 55 284 q27 169 27 281q0 118 -29 185t-82.5 94t-139.5 27z"/>
<glyph glyph-name="asterisk" horiz-adv-x="850" unicode="*" d="M860 918l-71 -108l-211 180l-39 -313h-139l96 313l-264 -184l-59 116l306 132l-241 134l74 110l212 -180l38 313h139l-95 -313l261 183l60 -116l-305 -131z"/>
<glyph glyph-name="plus" d="M624 518l-84 -381h-150l84 381h-341l30 135h340l83 380h150l-83 -380h344l-30 -135h-343z" unicode="+"/>
<glyph glyph-name="comma" horiz-adv-x="408" unicode="," d="M259 232q0 -36 -7 -86t-21.5 -96t-33.5 -81t-49.5 -72t-81.5 -80.5t-132 -95.5l-46 62q48 40 74.5 68t43.5 57t30.5 67.5t29.5 110.5t24 146h169z"/>
<glyph glyph-name="hyphen" horiz-adv-x="653" unicode="-" d="M539 449h-437l33 155h437z"/>
<glyph glyph-name="hyphen" horiz-adv-x="653" unicode="­" d="M539 449h-437l33 155h437z"/>
<glyph glyph-name="period" horiz-adv-x="408" unicode="." d="M245 232l-51 -232h-190l51 232h190z"/>
<glyph glyph-name="slash" horiz-adv-x="954" unicode="/" d="M1099 1431l-1074 -1861h-160l1075 1861h159z"/>
<glyph glyph-name="zero" d="M296 282q0 -81 14 -126.5t43 -66t80 -20.5q75 0 145.5 71t133 212t113.5 361t51 380q0 106 -31.5 154.5t-100.5 48.5q-44 0 -86 -22q-51 -27 -99 -89q-59 -75 -110 -198q-44 -108 -81 -249q-26 -102 -44 -200q-28 -144 -28 -256zM421 -16q-93 0 -159 35t-102.5 115 t-36.5 211q0 117 24 253.5t65.5 257.5t99.5 220t127.5 166.5t148.5 103t163 35.5q83 0 139.5 -26t92 -72.5t51 -111t15.5 -141.5q0 -214 -63.5 -435.5t-161.5 -365.5q-86 -127 -195 -189q-97 -56 -208 -56z" unicode="0"/>
<glyph glyph-name="one" d="M609 289q-18 -82 -18 -117q0 -40 21 -59.5t69.5 -28t150.5 -11.5l-15 -73h-706l15 73q84 4 129 11t72.5 19t44.5 29t30 45t25 84l160 725q9 42 13.5 67t4.5 41q0 30 -15 42.5t-36 12.5q-26 0 -79 -25.5t-158 -87.5l-39 80l507 265h69l-29 -117q-16 -64 -34 -149z" unicode="1"/>
<glyph glyph-name="two" d="M581 160q37 0 57.5 4t33.5 11.5t27 22.5t25.5 35t29.5 59h93l-74 -292h-784l10 48q58 104 151.5 218t253.5 266q134 127 185 180q91 92 139 159t68 125t20 118q0 84 -47.5 129.5t-135.5 45.5q-82 0 -147.5 -49t-105.5 -139h-129l43 192q113 45 209.5 66.5t192.5 21.5 q98 0 169.5 -32.5t108 -90t36.5 -126.5q0 -65 -16 -118.5t-50 -106.5q-42 -64 -129 -153q-78 -79 -257 -239q-250 -224 -347 -355h370z" unicode="2"/>
<glyph glyph-name="three" d="M264 1101l41 192q112 47 206 67.5t196 20.5q65 0 123 -15t101.5 -46t69 -79.5t25.5 -115.5q0 -92 -36 -163.5t-116.5 -131.5t-219.5 -114l-1 -11q124 -29 190 -105t66 -186q0 -83 -36 -167t-101.5 -143t-160.5 -89.5t-223 -30.5q-92 0 -197 20.5t-172 50.5l46 212h115 q6 -102 61 -150t161 -48q100 0 171 44t110.5 129t39.5 192q0 108 -69.5 162t-208.5 54h-100l19 88q121 8 214 44t151 91t82.5 117t24.5 125q0 82 -49 128t-134 46q-96 0 -158 -47t-106 -141h-125z" unicode="3"/>
<glyph glyph-name="four" d="M230 511h376l54 249q43 196 96 392h-14l-509 -627zM406 49q39 5 57.5 16t32.5 32t27 61.5t32 127.5l28 128h-532l19 94l728 864h166l-190 -861h34q53 0 77 8.5t41 29t38 71.5h90l-57 -206h-244l-32 -144q-9 -43 -12.5 -77t-3.5 -55q0 -46 21 -65.5t77 -23.5l-11 -49h-397 z" unicode="4"/>
<glyph glyph-name="five" d="M419 769q91 33 199 33q101 0 175 -39t113 -111.5t39 -168.5q0 -131 -59.5 -254.5t-175 -184t-281.5 -60.5q-86 0 -184.5 19t-176.5 52l46 212h115q6 -198 206 -198q108 0 179 56t107 152t36 193q0 112 -54 171t-157 59q-48 0 -87 -5t-94 -21l-85 64l139 627h499 q34 0 49.5 5.5t26.5 18.5t23 42h81l-64 -232h-520z" unicode="5"/>
<glyph glyph-name="six" d="M306 359q0 -145 55.5 -217.5t164.5 -72.5q79 0 144 51.5t101.5 144.5t36.5 210q0 239 -197 239q-34 0 -66.5 -6.5t-66 -20.5t-63.5 -34q-32 -21 -48 -37q-14 -14 -24 -32q-10 -19 -16 -42q-6 -25 -14 -89q-7 -51 -7 -94zM382 720q78 48 152 71.5t152 23.5 q84 0 152.5 -36.5t109 -111.5t40.5 -183q0 -71 -17.5 -144.5t-55.5 -138t-97 -113t-138.5 -76.5t-179.5 -28q-90 0 -156.5 32.5t-110.5 90t-66 134.5t-22 167q0 80 12 159q17 110 49 197q41 113 116.5 217.5t182.5 188t237 138t275 73.5l37 -55l-10 -49 q-240 -17 -411.5 -159.5t-260.5 -393.5z" unicode="6"/>
<glyph glyph-name="seven" d="M1153 1317l-806 -1324h-149l12 56l728 1134l3 15h-415q-49 0 -79.5 -11t-53.5 -38.5t-54 -107.5h-92l81 324h836z" unicode="7"/>
<glyph glyph-name="eight" d="M251 273q0 -100 54.5 -152t160.5 -52q83 0 143 34.5t96.5 91.5t55.5 132t19 143q0 97 -49 146.5t-151 49.5q-82 0 -145 -34t-103 -91.5t-60.5 -130t-20.5 -137.5zM408 940q0 -38 8.5 -72.5t31 -61t60 -42t97.5 -15.5q88 0 155 43t108.5 128t41.5 184q0 97 -49.5 144.5 t-147.5 47.5q-100 0 -169 -48.5t-102.5 -135.5t-33.5 -172zM800 709v-13q160 -76 160 -254q0 -39 -10 -91q-13 -73 -44 -132q-37 -72 -100 -124t-152 -81.5t-198 -29.5q-118 0 -205.5 37t-134 106.5t-46.5 163.5q0 80 29.5 160.5t97 144.5t173.5 108l1 13 q-70 50 -102.5 113.5t-32.5 141.5q0 38 8 81q11 63 39 114q34 62 94.5 110t146 76t185.5 28q133 0 218.5 -39t123.5 -103t38 -145q0 -80 -31 -155t-98.5 -136.5t-159.5 -93.5z" unicode="8"/>
<glyph glyph-name="nine" d="M565 651q58 0 118 22q53 19 95 52q33 25 47 47q19 29 28 83t9 142q0 148 -55 223.5t-162 75.5q-78 0 -143 -53t-102 -149t-37 -210q0 -119 47.5 -176t154.5 -57zM791 645q-72 -48 -145 -71.5t-151 -23.5q-91 0 -161.5 41t-108 116.5t-37.5 177.5q0 66 17.5 140t55 137.5 t96.5 113.5t137.5 77.5t172.5 27.5q90 0 158 -32.5t113 -90t68 -136.5t23 -173q0 -87 -19 -193q-15 -85 -49 -176q-34 -89 -81 -168q-47 -78 -108 -145q-60 -66 -128 -117t-144 -87q-77 -36 -159 -56q-80 -20 -165 -23l-37 55l10 49q173 14 298.5 79t211.5 181t142 293z" unicode="9"/>
<glyph glyph-name="colon" horiz-adv-x="530" unicode=":" d="M306 232l-51 -232h-190l51 232h190zM454 902l-51 -232h-190l51 232h190z"/>
<glyph glyph-name="semicolon" horiz-adv-x="530" unicode=";" d="M307 232q0 -36 -7 -86t-21.5 -96t-33.5 -81t-49.5 -72t-81.5 -80.5t-132 -95.5l-46 62q48 40 74.5 68t43.5 57t30.5 67.5t29.5 110.5t24 146h169zM454 902l-51 -232h-190l51 232h190z"/>
<glyph glyph-name="less" d="M132 515l30 140l918 378l-35 -160l-761 -298l628 -296l-30 -141z" unicode="&lt;"/>
<glyph glyph-name="equal" d="M89 310l30 135h830l-30 -135h-830zM180 725l30 135h830l-30 -135h-830z" unicode="="/>
<glyph glyph-name="greater" d="M996 655l-30 -140l-918 -378l35 160l761 298l-628 296l30 141z" unicode="&gt;"/>
<glyph glyph-name="question" horiz-adv-x="834" unicode="?" d="M418 232l-51 -232h-190l51 232h190zM288 416l7 34q9 45 27.5 82.5t57 86t110.5 121.5q82 86 119 134t59.5 93.5t32.5 88.5t10 93q0 72 -38.5 112t-102.5 40q-74 0 -128 -48t-81 -140h-129l35 164q127 61 201 82.5t144 21.5q96 0 162.5 -31.5t98.5 -85t32 -118.5 q0 -49 -14.5 -94.5t-47 -94t-89.5 -108t-151 -147.5q-61 -57 -92 -94.5t-48.5 -73t-30.5 -93.5l-5 -25h-139z"/>
<glyph glyph-name="at" horiz-adv-x="1813" unicode="@" d="M1145 721q8 36 10.5 62t2.5 52q0 64 -27 92t-89 28q-35 0 -66.5 -11.5t-64.5 -38t-62.5 -69t-53.5 -104t-37.5 -133t-13.5 -137.5q0 -85 23 -127t76 -42q42 0 83.5 30.5t88 90.5t76 122.5t46.5 147.5zM1110 422l-13 1q-84 -126 -159.5 -184t-153.5 -58q-65 0 -112 33.5 t-70.5 95.5t-23.5 145q0 81 19.5 164t58 158t92 131.5t125 91t154.5 34.5q59 0 107.5 -13.5t91.5 -40.5l78 54l64 -15l-111 -501q-10 -44 -14.5 -73t-4.5 -56q0 -115 96 -115q71 0 126 57.5t85 159t30 220.5q0 187 -60.5 315.5t-180.5 194.5t-291 66q-211 0 -370 -95 t-244.5 -270t-85.5 -398q0 -194 66.5 -325t193.5 -196.5t304 -65.5q86 0 157.5 12t152.5 38l24 -90q-64 -25 -153.5 -39t-185.5 -14q-250 0 -412.5 82t-239.5 236t-77 376q0 173 60 327t176 271.5t275 181t348 63.5q183 0 317.5 -50.5t216 -140t118 -200.5t36.5 -242 q0 -166 -50 -296t-141.5 -200.5t-212.5 -70.5q-42 0 -80 10.5t-66.5 33.5t-45.5 60t-17 90q0 24 3 47z"/>
<glyph glyph-name="A" horiz-adv-x="1205" unicode="A" d="M401 540h391l-17 322q-3 66 -5 165t-2 143h-11zM678 0l11 49q45 4 70.5 26t36 61t10.5 103q0 39 -3 85l-7 129h-440l-55 -98q-39 -69 -57 -118.5t-18 -87.5q0 -84 101 -100l-11 -49h-409l11 49q31 4 58.5 24.5t58.5 62t87 137.5l641 1108h151l72 -1115q5 -79 18 -123.5 t35.5 -66t65.5 -27.5l-11 -49h-416z"/>
<glyph glyph-name="B" horiz-adv-x="1221" unicode="B" d="M333 92q78 -4 146 -4q151 0 233.5 38t133.5 124t51 206q0 65 -25.5 110t-81 72t-152.5 27h-181zM619 753q104 0 167.5 14t103.5 42t71.5 65.5t50 88.5t18.5 120q0 43 -15 80.5t-51.5 64t-84 38t-126.5 11.5q-87 0 -162 -3l-113 -521h141zM895 699q93 -37 143 -105.5 t50 -155.5q0 -103 -37.5 -184.5t-118.5 -142.5t-186 -86t-259 -25h-445l11 49q38 6 57 19.5t32 37.5t24 58.5t33 133.5l170 770q22 100 22 158q0 49 -23 68t-75 22l11 49h495q150 0 240.5 -31.5t133 -92.5t42.5 -153q0 -131 -80 -228.5t-238 -149.5z"/>
<glyph glyph-name="C" horiz-adv-x="1105" unicode="C" d="M1184 1330l-60 -271h-96q-8 123 -53.5 177.5t-146.5 54.5q-84 0 -158 -49.5t-140 -143t-115 -219t-75 -256t-26 -235.5q0 -163 53.5 -239.5t167.5 -76.5q75 0 131 22.5t105 76t97 149.5h96l-61 -284q-102 -28 -197 -40t-195 -12q-124 0 -211 51.5t-131 149t-44 234.5 q0 72 10 140q12 84 38 183q33 123 83 224q54 107 123 189q65 76 141 127q70 47 151 73t172 26t168.5 -11t172.5 -40z"/>
<glyph glyph-name="D" horiz-adv-x="1324" unicode="D" d="M332 92q29 -3 111 -3q101 0 183.5 22t152 70.5t126.5 129.5t92.5 164.5t55.5 179.5t20 203q0 209 -97.5 314.5t-289.5 105.5q-44 0 -95 -3zM683 1365q151 0 245 -23t175.5 -83t122.5 -159.5t41 -235.5q0 -135 -31 -258t-89 -226.5t-139 -180t-157 -117.5t-170 -61.5 t-219 -20.5h-420l11 49q38 6 57 19.5t32 37.5t24 58.5t33 133.5l170 770q10 46 16 88.5t6 72.5q0 47 -24 65.5t-74 21.5l11 49h379z"/>
<glyph glyph-name="E" horiz-adv-x="1164" unicode="E" d="M1224 1365l-69 -307h-96q-3 72 -11 112.5t-18 60t-23 29t-32.5 13.5t-55.5 4h-326l-114 -524h191q44 0 73.5 12t54.5 41.5t56 90.5h91l-90 -384h-85q0 55 -4 81t-10.5 38.5t-16.5 19.5t-26 10t-53 3h-200l-128 -577h296q44 0 74.5 6.5t55.5 22.5t48 41.5t47.5 65.5 t66.5 122h97l-88 -346h-887l11 49q38 6 57 19.5t32 37.5t24 58.5t33 133.5l170 770q22 100 22 161q0 47 -24 65.5t-74 21.5l11 49h920z"/>
<glyph glyph-name="F" horiz-adv-x="1079" unicode="F" d="M376 291q-7 -30 -11 -51t-7 -51.5t-3 -53.5q0 -31 10 -48.5t30 -25.5t69 -12l-11 -49h-411l11 49q38 6 57 19.5t32 37.5t24 58.5t33 133.5l170 770q22 100 22 158q0 49 -23 68t-75 22l11 49h902l-69 -307h-96q-4 71 -11 111.5t-17.5 60.5t-23.5 29.5t-32.5 13.5t-55.5 4 h-308l-119 -544h187q44 0 73 12t54 43.5t62 107.5h91l-97 -422h-88q0 62 -2.5 97t-12 49t-27 19.5t-63.5 5.5h-196z"/>
<glyph glyph-name="G" horiz-adv-x="1198" unicode="G" d="M816 320q22 94 22 161q0 47 -24 65.5t-74 21.5l11 49h400l-11 -49q-34 -8 -48.5 -15t-25.5 -19.5t-22 -34.5t-22.5 -63.5t-27.5 -116.5l-69 -314l-79 -22l-52 79q-72 -34 -112 -48t-83 -22t-91 -8q-123 0 -209.5 52t-130 148.5t-43.5 228.5q0 107 22 219q25 127 67 237 q40 106 92.5 189.5t117.5 148.5q57 56 125 95t143 59t158 20q95 0 174 -11.5t173 -41.5l-61 -269h-96q-7 87 -29.5 137.5t-65 73.5t-110.5 23q-84 0 -155 -44.5t-136.5 -130.5t-119 -217t-82 -267t-28.5 -246q0 -162 53.5 -239.5t164.5 -77.5q41 0 84 9.5t80.5 32.5t66.5 62 t42 98z"/>
<glyph glyph-name="H" horiz-adv-x="1370" unicode="H" d="M1091 291q-13 -59 -17 -93.5t-4 -62.5q0 -45 22.5 -63.5t75.5 -22.5l-11 -49h-400l11 49q38 6 57 19.5t32 37.5t24 58.5t33 133.5l82 371h-537l-83 -378q-8 -37 -12.5 -60.5t-6.5 -46t-2 -49.5q0 -43 20 -62t78 -24l-11 -49h-400l11 49q38 6 57 19.5t32 37.5t24 58.5 t33 133.5l170 770q9 41 15.5 87.5t6.5 73.5q0 47 -24 65.5t-74 21.5l11 49h400l-11 -49q-38 -8 -54.5 -18t-30 -30t-27 -62.5t-34.5 -138.5l-68 -306h537l68 307q9 41 15.5 87.5t6.5 73.5q0 47 -24 65.5t-74 21.5l11 49h400l-11 -49q-34 -8 -48 -15t-25.5 -19t-22 -34.5 t-22.5 -66t-28 -114.5z"/>
<glyph glyph-name="I" horiz-adv-x="656" unicode="I" d="M376 291q-13 -59 -17 -93.5t-4 -62.5q0 -45 22.5 -63.5t75.5 -22.5l-11 -49h-400l11 49q38 6 57 19.5t32 37.5t24 58.5t33 133.5l170 770q10 46 16 88.5t6 72.5q0 47 -24 65.5t-74 21.5l11 49h400l-11 -49q-38 -8 -54.5 -18t-30 -30t-27 -62.5t-34.5 -138.5z"/>
<glyph glyph-name="J" horiz-adv-x="613" unicode="J" d="M301 43q-34 -156 -87 -248.5t-137.5 -137t-207.5 -44.5q-27 0 -53 2.5t-42 7.5l26 96q16 -5 35.5 -6.5t40.5 -1.5q58 0 100.5 27t77 93.5t60.5 182.5l234 1054q10 44 16 87.5t6 73.5q0 47 -24 65.5t-74 21.5l11 49h400l-11 -49q-38 -8 -54.5 -18t-30 -30t-27 -62.5 t-34.5 -138.5z"/>
<glyph glyph-name="K" horiz-adv-x="1235" unicode="K" d="M476 748h33q42 0 76.5 14t80.5 51t146.5 136t143 150.5t62 89t19.5 68.5q0 25 -20 40.5t-57 18.5l11 49h429l-11 -49q-40 -6 -90.5 -41.5t-154.5 -138.5l-388 -378l213 -512q27 -65 43.5 -95.5t35.5 -51t43 -33t58 -17.5l-11 -49h-386l11 49q54 5 54 48q0 13 -2.5 27 t-11 41t-23.5 65l-130 318q-23 57 -40 80t-36 32t-59 9h-56l-83 -378q-13 -60 -17 -94.5t-4 -61.5q0 -45 22.5 -63.5t75.5 -22.5l-11 -49h-400l11 49q38 6 57 19.5t32 37.5t24 58.5t33 133.5l170 770q10 46 16 88.5t6 72.5q0 47 -24 65.5t-74 21.5l11 49h400l-11 -49 q-38 -8 -54.5 -18t-30 -30t-27 -62.5t-34.5 -138.5z"/>
<glyph glyph-name="L" horiz-adv-x="1071" unicode="L" d="M53 49q38 6 57 19.5t32 37.5t24 58.5t33 133.5l170 770q10 46 16 88.5t6 72.5q0 47 -24 65.5t-74 21.5l11 49h400l-11 -49q-38 -8 -54.5 -18t-30 -30t-27 -62.5t-34.5 -138.5l-214 -975h246q67 0 105.5 13t73 47.5t67.5 93.5t67 147h97l-101 -393h-846z"/>
<glyph glyph-name="M" horiz-adv-x="1622" unicode="M" d="M1356 1365h315l-11 -49q-38 -8 -54.5 -18t-30 -30t-27 -62.5t-34.5 -138.5l-171 -776q-13 -59 -17 -93.5t-4 -62.5q0 -45 22.5 -63.5t75.5 -22.5l-11 -49h-400l11 49q38 6 57 19.5t32 37.5t24 58.5t33 133.5l133 603q26 119 66 255h-14q-29 -54 -57.5 -103.5 t-84.5 -142.5l-455 -751h-109l-96 750l-27 269h-20q-38 -251 -76 -425l-96 -436q-17 -76 -22 -113t-5 -69q0 -45 22.5 -63.5t75.5 -22.5l-11 -49h-350l11 49q38 6 57 19.5t32 37.5t24 58.5t33 133.5l170 770q10 43 16 82t6 79q0 47 -24 65.5t-74 21.5l11 49h357l114 -970z "/>
<glyph glyph-name="N" horiz-adv-x="1374" unicode="N" d="M1428 1365l-11 -49q-38 -8 -54.5 -18t-30 -30t-27 -62.5t-34.5 -138.5l-235 -1067h-136l-292 858q-53 154 -93 307h-13q-6 -51 -33 -194.5t-57 -280.5l-88 -399q-9 -42 -15 -81t-6 -75q0 -45 22.5 -63.5t75.5 -22.5l-11 -49h-350l11 49q38 6 57 19.5t32 37.5t24 58.5 t33 133.5l170 770q10 43 16 82t6 79q0 47 -24 65.5t-74 21.5l11 49h319l264 -779q57 -168 88 -284h11q8 61 36.5 203t52.5 248l70 315q7 33 14.5 78t7.5 83q0 47 -24 65.5t-74 21.5l11 49h350z"/>
<glyph glyph-name="O" horiz-adv-x="1273" unicode="O" d="M1049 987q0 306 -223 306q-54 0 -102 -18q-56 -22 -107 -65q-57 -49 -106 -125q-58 -90 -101 -205q-45 -120 -72 -259q-26 -133 -26 -241q0 -156 56.5 -232.5t168.5 -76.5q90 0 171 55q100 67 180 213q86 157 133 383q28 133 28 265zM837 1381q124 0 214.5 -48t139 -146 t48.5 -242q0 -155 -53 -348.5t-153.5 -335t-229.5 -210t-270 -68.5q-140 0 -231.5 54t-134.5 150.5t-43 227.5q0 127 36.5 284.5t100 284.5t151 216t195.5 135t230 46z"/>
<glyph glyph-name="P" horiz-adv-x="1137" unicode="P" d="M561 668q121 0 195.5 25t122 77.5t73.5 124.5t26 158q0 85 -30 134t-85 69.5t-140 20.5q-62 0 -130 -3l-136 -606h104zM745 1365q119 0 195.5 -18.5t126 -57t74 -97.5t24.5 -137q0 -150 -71 -260t-192.5 -162t-291.5 -52q-102 0 -170 4l-64 -294q-9 -41 -12.5 -63 t-6 -47.5t-2.5 -45.5q0 -31 10 -48.5t30 -25.5t69 -12l-11 -49h-411l11 49q38 6 57 19.5t32 37.5t24 58.5t33 133.5l170 770q22 100 22 158q0 49 -23 68t-75 22l11 49h441z"/>
<glyph glyph-name="Q" horiz-adv-x="1273" unicode="Q" d="M1050 987q0 149 -55 227.5t-169 78.5q-54 0 -102 -18q-56 -22 -107 -65q-57 -49 -106 -125q-58 -90 -101 -205q-45 -120 -72 -259q-26 -133 -26 -241q0 -156 56.5 -232.5t168.5 -76.5q98 0 185.5 65t160 193t120 312t47.5 346zM675 1q23 -73 43 -120.5t38.5 -77t36.5 -44 t36 -19.5t42 -5q38 0 77 22t87 76l52 -56q-80 -87 -149 -123t-142 -36q-83 0 -135.5 37t-91 118t-74.5 212q-181 10 -276 120t-95 310q0 127 36.5 284.5t100 284.5t151 216t195.5 135t230 46q124 0 214.5 -48t139 -146t48.5 -242q0 -140 -44 -313t-121 -305.5t-178.5 -213.5 t-220.5 -112z"/>
<glyph glyph-name="R" horiz-adv-x="1209" unicode="R" d="M583 694q109 0 181 21.5t120 65.5t79 116t31 156q0 43 -8 76.5t-21 55.5t-33 39t-50 29.5t-69.5 18t-107.5 5.5q-53 0 -112 -4l-128 -579h118zM809 619q48 -36 77.5 -86t47.5 -139l23 -116q7 -36 15.5 -67t20 -59.5t25 -45.5t29 -28t35 -17.5t49.5 -11.5l-10 -49h-277 q-32 89 -57 212l-44 212q-11 55 -26.5 92.5t-37 58t-50 27t-69.5 6.5h-114l-70 -317q-9 -39 -12.5 -62t-6 -48.5t-2.5 -45.5q0 -31 10 -48.5t30 -25.5t69 -12l-11 -49h-411l11 49q38 6 57 19.5t32 37.5t24 58.5t33 133.5l170 770q22 100 22 158q0 49 -23 68t-75 22l11 49 h445q106 0 173 -12.5t114.5 -37.5t79.5 -64.5t48 -89t16 -105.5q0 -89 -29.5 -158t-80.5 -121t-118.5 -88t-142.5 -59v-11z"/>
<glyph glyph-name="S" horiz-adv-x="986" unicode="S" d="M159 311q0 -121 56 -180.5t175 -59.5q92 0 158 34t100 96.5t34 148.5q0 61 -21.5 107.5t-65 89t-125.5 97.5q-74 50 -123 98.5t-78 108.5t-29 134q0 118 57 208t161 139t240 49q92 0 170.5 -12.5t173.5 -42.5l-56 -257h-96q-4 85 -26 133.5t-63 69.5t-109 21 q-83 0 -146 -34t-96 -92.5t-33 -130.5q0 -52 18 -93t57.5 -80.5t115.5 -91.5q98 -68 149.5 -121.5t76 -113.5t24.5 -139q0 -121 -58.5 -215.5t-165 -146t-242.5 -51.5q-93 0 -197.5 14t-191.5 38l60 275h96z"/>
<glyph glyph-name="T" horiz-adv-x="1175" unicode="T" d="M712 0h-421l11 49q39 5 58 15.5t33.5 31.5t29.5 65.5t35 136.5l214 979h-127q-62 0 -99 -18t-74 -67t-90 -164h-96l75 337h1044l-78 -352h-96q0 97 -5 145.5t-19 74t-34.5 35t-72.5 9.5h-148l-217 -986q-9 -39 -12.5 -62t-6 -48.5t-2.5 -45.5q0 -31 10 -48.5t30 -25.5 t69 -12z"/>
<glyph glyph-name="U" horiz-adv-x="1295" unicode="U" d="M260 1316l11 49h402l-11 -49q-38 -8 -54.5 -18t-30 -30t-27 -62.5t-34.5 -138.5l-125 -560q-13 -57 -20.5 -108.5t-7.5 -106.5q0 -109 53.5 -165t161.5 -56q102 0 170 42t109 121t69 205l139 629q10 45 16 88t6 73q0 47 -24 65.5t-74 21.5l11 49h380l-11 -49 q-37 -8 -54.5 -18.5t-31 -30.5t-26.5 -63t-34 -137l-130 -599q-39 -179 -110 -285t-177.5 -153t-260.5 -47q-173 0 -265 83.5t-92 243.5q0 56 11.5 128.5t32.5 163.5l104 466q12 53 17.5 94.5t5.5 66.5q0 45 -23 64.5t-76 22.5z"/>
<glyph glyph-name="V" horiz-adv-x="1178" unicode="V" d="M615 1365l-11 -49q-44 -5 -68.5 -26t-34.5 -58.5t-10 -100.5q0 -20 1 -42l30 -780v-80h10l433 781q38 69 57 118.5t19 87.5q0 40 -23.5 65.5t-76.5 34.5l11 49h409l-11 -49q-27 -4 -51.5 -20.5t-55 -55t-94.5 -148.5l-640 -1108h-133l-67 1115q-4 65 -14.5 111.5 t-33 72.5t-71.5 33l11 49h414z"/>
<glyph glyph-name="W" horiz-adv-x="1836" unicode="W" d="M1051 -13v732q0 178 9 371h-10l-535 -1103h-157l-47 1112q-4 83 -17.5 127t-36.5 64t-65 26l11 49h417l-11 -49q-45 -3 -70.5 -26.5t-35.5 -64t-10 -114.5v-34q0 -18 1 -37l9 -391q1 -43 1 -132v-81l-1 -209h10l553 1138h151v-667q0 -119 -3 -231l-6 -240h10l405 783 q23 44 48.5 103.5t25.5 102.5q0 40 -23.5 65.5t-76.5 34.5l11 49h409l-11 -49q-46 -6 -88 -50.5t-112 -173.5l-601 -1105h-154z"/>
<glyph glyph-name="X" horiz-adv-x="1116" unicode="X" d="M640 1365l-11 -49q-43 -7 -68.5 -29.5t-25.5 -65.5q0 -64 33 -161l83 -242l214 271q15 19 29.5 39.5t26 40t17 33.5t8 25t2.5 21q0 27 -16 46t-55 22l11 49h373l-11 -49q-30 -9 -56.5 -29t-63 -60t-135.5 -158l-298 -356l146 -406q33 -92 53 -139q22 -50 38 -73 q13 -17 27 -27q14 -9 47 -19l-10 -49h-404l10 49q46 7 70.5 31.5t24.5 63.5q0 59 -24 131l-104 305l-228 -285q-51 -64 -74 -104.5t-23 -69.5q0 -24 6.5 -38t22 -22.5t42.5 -11.5l-11 -49h-372l10 49q20 7 35.5 15.5t34 24t50 50.5t71.5 82l390 464l-148 411q-22 61 -39 102 t-33.5 65t-34.5 36t-45 17l11 49h404z"/>
<glyph glyph-name="Y" horiz-adv-x="1122" unicode="Y" d="M587 1365l-11 -49q-42 -4 -64 -24.5t-22 -63.5q0 -61 28 -160l106 -377l246 329q55 73 79.5 114.5t34.5 73.5q8 24 8 46q0 28 -19 43t-55 19l11 49h375l-11 -49q-24 -5 -41.5 -14.5t-40 -30.5t-61 -67.5t-98.5 -124.5l-389 -505l-62 -283q-9 -40 -12.5 -62.5t-6 -48 t-2.5 -45.5q0 -31 10 -48.5t30 -25.5t69 -12l-11 -49h-421l11 49q40 6 59 16t33.5 31t29 66t34.5 136l59 276l-145 505q-33 116 -52 157t-40.5 58t-56.5 22l11 49h387z"/>
<glyph glyph-name="Z" horiz-adv-x="1049" unicode="Z" d="M237 92h320q44 0 72 6t50 18t41 30t38.5 43t43 67t51.5 106h96l-77 -362h-887l10 49l908 1224h-307q-42 0 -67 -4.5t-44 -14t-34 -22t-35.5 -37t-45 -63.5t-56.5 -105h-96l74 338h866l-11 -48z"/>
<glyph glyph-name="bracketleft" horiz-adv-x="694" unicode="[" d="M452 -430h-423l409 1861h423l-18 -82h-253l-374 -1699h253z"/>
<glyph glyph-name="backslash" horiz-adv-x="954" unicode="\" d="M418 1431l269 -1861h-146l-269 1861h146z"/>
<glyph glyph-name="bracketright" horiz-adv-x="694" unicode="]" d="M267 -430h-423l18 81h252l373 1698h-253l18 82h424z"/>
<glyph glyph-name="asciicircum" d="M835 675l-123 569l-367 -569h-154l473 706h144l169 -706h-142z" unicode="^"/>
<glyph glyph-name="underscore" horiz-adv-x="759" unicode="_" d="M-145 -241v116h759v-116h-759z"/>
<glyph glyph-name="grave" horiz-adv-x="554" unicode="`" d="M433 1442l133 -328l-71 -44l-235 322l11 50h162z"/>
<glyph glyph-name="a" horiz-adv-x="1077" unicode="a" d="M746 609q9 41 12 71t3 65q0 78 -33 113.5t-110 35.5q-42 0 -80 -13.5t-77 -45t-74.5 -82.5t-64.5 -124t-45 -156.5t-16 -162.5q0 -104 28.5 -155.5t95.5 -51.5q31 0 64.5 14t74.5 51.5t93 110.5q47 67 74.5 132.5t45.5 154.5zM834 907l92 66l64 -16l-153 -679 q-14 -60 -19 -92.5t-5 -53.5q0 -41 23 -59.5t88 -23.5l-9 -49h-286l63 251l-13 4q-96 -140 -182 -205t-182 -65q-110 0 -170.5 83t-60.5 233q0 96 22 192.5t66.5 183t106.5 152.5t143.5 105t177.5 39q62 0 118 -14.5t116 -51.5z"/>
<glyph glyph-name="b" horiz-adv-x="1067" unicode="b" d="M321 348q-10 -45 -12.5 -76.5t-2.5 -59.5q0 -79 34.5 -114t114.5 -35q52 0 95 20t81.5 58.5t70 93.5t55.5 125.5t36.5 146t12.5 140.5q0 104 -29.5 156t-94.5 52q-48 0 -94.5 -30.5t-103.5 -101t-93 -144.5t-61 -189zM233 49l-92 -65l-64 16l259 1143q6 25 14.5 72 t8.5 76q0 42 -25.5 59t-91.5 19l12 52l253 9h58l-176 -700l13 -4q97 130 182 188t170 58q109 0 169.5 -83t60.5 -234q0 -108 -29.5 -217t-82 -197t-117 -144.5t-136 -84.5t-150.5 -28q-133 0 -236 65z"/>
<glyph glyph-name="c" horiz-adv-x="887" unicode="c" d="M735 716q-2 76 -12.5 110t-34 51t-66.5 17q-101 0 -181.5 -80.5t-131.5 -228t-51 -283.5q0 -42 7.5 -79t26 -64t49 -42.5t77.5 -15.5q91 0 157.5 34.5t140.5 108.5l61 -61q-94 -104 -189.5 -152t-205.5 -48q-145 0 -220 86t-75 250q0 107 40 235t117 225t180 145t220 48 q80 0 139.5 -9t105.5 -21l-49 -226h-105z"/>
<glyph glyph-name="d" horiz-adv-x="1073" unicode="d" d="M746 609q15 72 15 136q0 78 -33 113.5t-110 35.5q-42 0 -80 -13.5t-77 -45t-74.5 -82.5t-64.5 -124t-45 -156.5t-16 -162.5q0 -104 28.5 -155.5t95.5 -51.5q31 0 64.5 14t74.5 51.5t93 110.5q47 67 74.5 132.5t45.5 154.5zM870 1148q8 33 14 73t6 70t-11 45.5t-31.5 22.5 t-73.5 10l12 52l251 9h59l-259 -1152q-14 -63 -19 -94t-5 -52q0 -41 23 -59.5t88 -23.5l-9 -49h-286l63 251l-13 4q-96 -140 -182 -205t-182 -65q-110 0 -170.5 83t-60.5 233q0 96 22 192.5t66.5 183t106.5 152.5t143.5 105t177.5 39q61 0 112.5 -12.5t105.5 -43.5z"/>
<glyph glyph-name="e" horiz-adv-x="936" unicode="e" d="M282 516q92 1 161.5 10.5t119.5 26t83 39.5t52.5 50.5t27 58t7.5 63.5q0 61 -28.5 95.5t-84.5 34.5q-70 0 -137.5 -50.5t-119 -136t-81.5 -191.5zM814 199q-74 -81 -142 -128t-136 -67t-150 -20q-79 0 -136 25.5t-94.5 70t-55.5 106t-18 133.5q0 107 38.5 229.5 t116.5 220t187 151t232 53.5q121 0 181.5 -49t60.5 -153q0 -170 -159.5 -255t-473.5 -85q-12 -60 -12 -130q0 -105 41 -152.5t134 -47.5q92 0 167 40t157 123z"/>
<glyph glyph-name="f" horiz-adv-x="599" unicode="f" d="M254 -17q-34 -160 -93.5 -254t-144.5 -135t-206 -41q-44 0 -79 10l23 88q24 -8 70 -8q53 0 86.5 14t62 45.5t54 92t48.5 159.5l203 901h-121l12 51q49 5 69 13.5t32.5 23t22.5 41t29 91.5q53 180 163.5 270.5t281.5 90.5q98 0 169 -16l-39 -170h-88q-14 57 -36.5 82 t-66.5 25q-57 0 -97 -31t-68.5 -93.5t-52.5 -167.5l-25 -109h229l-22 -101h-230z"/>
<glyph glyph-name="g" horiz-adv-x="1070" unicode="g" d="M389 103q51 0 101.5 35t108 111t89.5 145t54.5 172t22.5 179q0 78 -33 113.5t-110 35.5q-42 0 -80 -13.5t-77 -45t-74.5 -82.5t-64.5 -124t-45 -156.5t-16 -162.5q0 -104 30 -155.5t94 -51.5zM102 -86q-19 -23 -32 -45.5t-18.5 -43.5t-5.5 -50q0 -75 54 -109.5t163 -34.5 q99 0 165 35t112 107.5t80.5 179t70.5 284.5l-14 3q-97 -133 -180 -194t-179 -61q-109 0 -169.5 82t-60.5 234q0 111 29 219t81 195t117.5 144.5t138.5 85.5t152 28q63 0 119 -15t113 -51l92 66l64 -16l-104 -469q-11 -50 -23 -113l-26 -131q-47 -236 -75 -325 q-34 -103 -80 -172q-43 -63 -102 -105.5t-136.5 -65.5t-182.5 -23q-378 0 -378 220q0 56 34 102t109 97z"/>
<glyph glyph-name="h" horiz-adv-x="1086" unicode="h" d="M933 0h-314l126 508q14 55 24.5 111.5t10.5 102.5q0 72 -24 102.5t-81 30.5q-41 0 -90.5 -34t-104.5 -103.5t-87.5 -133t-51.5 -151.5l-91 -433h-173l257 1143q11 50 15.5 72.5t6.5 41.5t2 34q0 42 -25.5 59t-91.5 19l12 52l253 9h58l-172 -693l12 -4q94 125 179 182 t173 57q97 0 147 -53.5t50 -158.5q0 -64 -20 -154l-84 -356q-10 -43 -14 -69t-4 -45q0 -31 10.5 -48t32 -25.5t68.5 -13.5z"/>
<glyph glyph-name="i" horiz-adv-x="555" unicode="i" d="M313 250q-11 -51 -14 -74.5t-3 -39.5q0 -30 10 -47t31 -26t69 -14l-9 -49h-310l151 674q13 58 18 92.5t5 57.5q0 29 -8.5 45t-28.5 24t-69 10l11 53l244 9h59zM560 1348l-46 -194h-177l46 194h177z"/>
<glyph glyph-name="j" horiz-adv-x="545" unicode="j" d="M262 -17q-32 -152 -87 -244.5t-143 -139t-210 -46.5q-50 0 -85 10l23 88q16 -5 35.5 -6.5t40.5 -1.5q48 0 81.5 14.5t62.5 48t53.5 93.5t45.5 155l162 720q13 56 18 91t5 59q0 29 -8.5 45t-28.5 24t-69 10l11 53l244 9h57zM563 1348l-46 -194h-177l46 194h177z"/>
<glyph glyph-name="k" horiz-adv-x="1018" unicode="k" d="M368 557h32q31 0 67 12t77 37.5t110 80.5q52 42 77 71.5t34 51.5t9 42q0 49 -68 55l11 49h324l19 -49q-83 -75 -176 -147l-253 -197l150 -379q20 -51 41 -78.5t48.5 -40.5t70.5 -16l-11 -49h-267l-146 411q-14 39 -24 53t-23 20t-42 6h-74l-104 -490h-173l257 1143 q11 50 15.5 72.5t6.5 41.5t2 34q0 42 -25.5 59t-91.5 19l12 52l253 9h58z"/>
<glyph glyph-name="l" horiz-adv-x="546" unicode="l" d="M505 1430h59l-260 -1180q-11 -48 -14 -72.5t-3 -41.5q0 -30 10 -47t31 -26t69 -14l-8 -49h-312l258 1148q10 44 14 66t6 42t2 35q0 30 -11 45.5t-31.5 22.5t-73.5 10l12 52z"/>
<glyph glyph-name="m" horiz-adv-x="1636" unicode="m" d="M959 760v-14q0 -7 -1 -15q87 123 173 182t178 59q95 0 144.5 -53.5t49.5 -158.5q0 -64 -20 -154l-84 -356q-17 -72 -17 -114q0 -30 10 -47t31 -26t69 -14l-9 -49h-314l126 508q14 55 24.5 111.5t10.5 102.5q0 72 -25 102.5t-79 30.5q-39 0 -87.5 -32t-101.5 -98 t-86.5 -130.5t-53.5 -157.5l-91 -437h-173l115 508q21 93 28.5 137.5t7.5 76.5q0 72 -25.5 102.5t-79.5 30.5q-40 0 -88.5 -32.5t-102.5 -100.5t-86.5 -133.5t-50.5 -155.5l-91 -433h-173l152 683q5 23 13.5 68t8.5 75q0 28 -8.5 43.5t-29 23t-69.5 10.5l12 53l228 9h56 l-66 -259l12 -4q92 137 183 203.5t184 66.5q96 0 146 -54.5t50 -157.5z"/>
<glyph glyph-name="n" horiz-adv-x="1096" unicode="n" d="M943 0h-315l127 508q12 49 23.5 108t11.5 106q0 71 -24.5 102t-76.5 31q-42 0 -90.5 -32.5t-101.5 -97t-89.5 -131t-56.5 -161.5l-91 -433h-173l152 683q5 23 13.5 68t8.5 75q0 28 -8.5 43.5t-29 23t-69.5 10.5l12 53l227 9h57l-67 -260l12 -4q98 138 189 204.5t182 66.5 q97 0 147 -53.5t50 -158.5q0 -36 -6.5 -78.5t-14.5 -75.5l-84 -356q-17 -72 -17 -114q0 -30 10 -47t31 -26t69 -14z"/>
<glyph glyph-name="o" horiz-adv-x="1038" unicode="o" d="M258 277q0 -110 45.5 -162.5t137.5 -52.5q98 0 174 88t120 246.5t44 278.5q0 108 -42 162.5t-131 54.5q-104 0 -181.5 -87t-122 -249t-44.5 -279zM409 -17q-155 0 -240.5 87t-85.5 250q0 60 15 141q19 105 54 186q45 101 115.5 174.5t162 112t196.5 38.5q115 0 188.5 -44 t106.5 -119.5t33 -174.5q0 -89 -25 -190q-36 -148 -105 -251t-173 -156.5t-242 -53.5z"/>
<glyph glyph-name="p" horiz-adv-x="1079" unicode="p" d="M334 348q-10 -53 -12.5 -81t-2.5 -55q0 -78 33.5 -113.5t115.5 -35.5q51 0 94 20t81.5 58t69.5 92t55.5 125.5t37 147t12.5 141.5q0 105 -29.5 156.5t-93.5 51.5q-51 0 -100.5 -34.5t-108.5 -110.5t-92 -150t-52 -170zM214 -177q-10 -48 -12.5 -74t-2.5 -43q0 -30 10 -47 t31 -26t69 -14l-8 -49h-309l253 1112q19 84 19 144q0 28 -8.5 43.5t-29 23t-69.5 10.5l12 53l227 9h57l-67 -260l12 -4q185 271 368 271q109 0 169.5 -83t60.5 -234q0 -108 -29.5 -217t-82 -197t-117 -144.5t-136 -84.5t-150.5 -28q-133 0 -221 58z"/>
<glyph glyph-name="q" horiz-adv-x="1068" unicode="q" d="M747 609q9 44 12 75.5t3 60.5q0 78 -33 113.5t-110 35.5q-42 0 -80 -13.5t-77 -45t-74.5 -82.5t-64.5 -124t-45 -156.5t-16 -162.5q0 -104 28.5 -155.5t95.5 -51.5q31 0 64.5 14t74.5 51.5t93 110.5q47 67 74.5 132.5t45.5 154.5zM666 232q-90 -127 -175.5 -187 t-174.5 -60q-110 0 -170.5 83t-60.5 233q0 96 22 192.5t66.5 183t106.5 152.5t143.5 105t177.5 39q62 0 118 -14.5t116 -51.5l92 66l64 -16l-256 -1137q-17 -76 -17 -114q0 -31 10 -47.5t31.5 -25.5t69.5 -14l-9 -49h-312l172 656z"/>
<glyph glyph-name="r" horiz-adv-x="834" unicode="r" d="M398 965h60l-70 -246l12 -4q95 131 185.5 194t186.5 63q73 0 122 -11l-48 -224h-103q-8 52 -25 79t-53 27q-39 0 -90 -40t-104 -110t-79.5 -129t-40.5 -131l-91 -433h-173l152 683q21 94 21 143q0 28 -9 43.5t-29 23t-68 10.5l11 53z"/>
<glyph glyph-name="s" horiz-adv-x="782" unicode="s" d="M660 723q-11 90 -51.5 130.5t-125.5 40.5q-47 0 -85 -17.5t-60 -51t-22 -78.5q0 -37 15 -67.5t50.5 -63.5t99.5 -76q97 -65 136 -126t39 -141q0 -94 -45 -159.5t-123 -97.5t-176 -32q-88 0 -164.5 13t-148.5 33l47 216h78q7 -92 52.5 -137.5t132.5 -45.5q89 0 139 44.5 t50 117.5q0 43 -15 77t-47 65t-91 71q-63 43 -102 81t-60.5 83.5t-21.5 100.5q0 83 41 144t116.5 93t176.5 32q165 0 291 -43l-46 -206h-80z"/>
<glyph glyph-name="t" horiz-adv-x="707" unicode="t" d="M675 184q-82 -99 -162 -149.5t-170 -50.5q-106 0 -158 54t-52 157q0 63 18 141l124 519h-149l11 51q59 7 93.5 25.5t58 49t43.5 79.5t50 143h138l-55 -247h317l-22 -101h-318l-96 -388q-40 -162 -40 -242q0 -61 26.5 -92.5t77.5 -31.5q46 0 96.5 35.5t110.5 107.5z"/>
<glyph glyph-name="u" horiz-adv-x="1096" unicode="u" d="M153 956h315l-127 -509q-14 -56 -24.5 -111.5t-10.5 -101.5q0 -71 24.5 -102t76.5 -31q43 0 93 33.5t106 104t88.5 133.5t50.5 150l91 434h173l-152 -683q-6 -27 -14 -71t-8 -72q0 -42 23.5 -59.5t87.5 -21.5l-11 -49h-286l64 251l-13 4q-97 -138 -187.5 -204.5 t-182.5 -66.5q-97 0 -147 53.5t-50 158.5q0 30 5.5 70.5t15.5 84.5l84 355q10 44 13.5 70t3.5 44q0 45 -24 63t-86 23z"/>
<glyph glyph-name="v" horiz-adv-x="942" unicode="v" d="M934 956l27 -50q-37 -89 -56.5 -132t-53 -107.5t-75 -135.5t-94.5 -152t-120.5 -178t-158.5 -217h-125l-93 755q-9 73 -19.5 104.5t-30.5 46t-63 17.5l11 49h257l76 -795q172 237 255 399t83 263q0 47 -20 64t-68 20l10 49h258z"/>
<glyph glyph-name="w" horiz-adv-x="1490" unicode="w" d="M979 166q156 222 237.5 387.5t81.5 269.5q0 47 -20 64t-68 20l10 49h258l27 -50q-35 -89 -56 -137t-55 -115.5t-72 -134.5t-89.5 -147.5t-115.5 -175t-151 -212.5h-119l-41 418q-5 49 -10.5 128t-7.5 122l-11 1q-54 -133 -147 -296t-230 -373h-134l-76 753q-6 58 -15 94 t-30 54t-69 22l11 49h262l60 -789q141 230 203.5 350t92.5 207.5t46 182.5l11 49h144z"/>
<glyph glyph-name="x" horiz-adv-x="920" unicode="x" d="M946 907q-194 -207 -406 -409l93 -219q37 -88 59 -129.5t40 -60t36 -27t57 -13.5l-11 -49h-249l-139 402q-24 -21 -63.5 -58.5t-76.5 -80t-52 -68.5t-19.5 -45t-4.5 -39q0 -26 14.5 -41t49.5 -21l-11 -49h-285l-19 49q219 235 431 433l-95 223q-29 68 -47 103.5t-34.5 55 t-38 30t-61.5 13.5l11 49h249l133 -377q49 45 93 93t62 76t25 50t7 46q0 55 -64 63l11 49h285z"/>
<glyph glyph-name="y" horiz-adv-x="942" unicode="y" d="M185 738q-10 76 -19 105.5t-29 45t-65 18.5l11 49h257l76 -795q338 462 338 662q0 47 -20 64t-68 20l10 49h258l27 -50q-53 -139 -135.5 -288t-202 -326t-265.5 -368q-112 -147 -188 -222q-59 -57 -108.5 -86.5t-96 -42t-98.5 -12.5q-27 0 -61 5.5t-58 14.5l43 187h78 q1 -34 16 -54t44 -20q32 0 55 6.5t48.5 21.5t62 48t82.5 87.5t103 131.5z"/>
<glyph glyph-name="z" horiz-adv-x="921" unicode="z" d="M797 281l-61 -281h-724l-19 49l547 630q116 133 170 189l-6 7h-234q-52 0 -76 -7t-48 -24.5t-51.5 -52t-61.5 -98.5h-89l59 263h711l19 -50l-718 -818l6 -7h226q60 0 92 6.5t56 24.5t49.5 54.5t63.5 114.5h89z"/>
<glyph glyph-name="braceleft" horiz-adv-x="768" unicode="{" d="M495 -432q-167 0 -246.5 63t-79.5 194q0 59 18 144l59 273q12 56 12 95q0 71 -37.5 102t-126.5 31l17 82q105 0 167 61t92 193l61 277q19 84 46 142t66 97t90 62.5t117 34.5t149 11h31l-18 -81q-104 0 -159 -25t-90.5 -86t-61.5 -180l-45 -204q-21 -93 -51 -156t-82 -109 t-135 -77l-4 -18q64 -32 96 -85t32 -137q0 -67 -21 -164l-45 -206q-14 -64 -14 -108q0 -59 24 -90t68 -43t122 -12l-17 -81h-34z"/>
<glyph glyph-name="bar" horiz-adv-x="646" unicode="|" d="M200 -430h-154l410 1861h154z"/>
<glyph glyph-name="braceright" horiz-adv-x="768" unicode="}" d="M283 1431q27 0 68 -3q31 -3 62.5 -9.5t64 -20t57 -34.5t40.5 -47.5t25 -62.5t9 -80q0 -59 -18 -144l-59 -273q-12 -56 -12 -95q0 -71 37 -102.5t127 -31.5l-17 -82q-107 0 -168.5 -63t-89.5 -191l-61 -277q-30 -137 -87 -210t-148 -105t-233 -32h-32l18 81 q110 0 164.5 28t88 89t58.5 174l45 204q21 95 51 157.5t82 108t135 76.5l4 18q-63 31 -95.5 84.5t-32.5 137.5q0 67 21 164l45 206q14 64 14 108q0 57 -23 88.5t-67 44t-124 12.5l17 81z"/>
<glyph glyph-name="asciitilde" d="M74 512q41 53 74.5 93t62 66.5t53.5 43.5t47.5 26.5t43.5 14t44 4.5q36 0 66 -10.5t59 -32t74 -68.5q37 -40 60.5 -60t47 -30.5t52.5 -10.5q33 0 59.5 13t58.5 45.5t97 118.5l85 -67q-84 -109 -132 -155t-94 -69.5t-97 -23.5q-39 0 -71 11t-60.5 33t-70.5 67 q-43 47 -66.5 66t-45 27t-47.5 8q-33 0 -62.5 -16t-60.5 -48t-93 -114z" unicode="~"/>
<glyph glyph-name="exclamdown" horiz-adv-x="574" unicode="¡" d="M-17 -409l270 949h99l-164 -949h-205zM244 724l51 232h190l-51 -232h-190z"/>
<glyph glyph-name="cent" horiz-adv-x="896" unicode="¢" d="M386 146l171 781q-81 -29 -143.5 -114t-103 -216.5t-40.5 -250.5q0 -173 116 -200zM320 -156l40 184q-126 11 -190.5 97t-64.5 238q0 98 34.5 216.5t98.5 211t149 147t188 71.5l42 190h103l-40 -183q122 -2 227 -30l-43 -199h-105q-6 78 -29 112t-67 40l-174 -795 q61 7 118 41.5t127 102.5l61 -61q-81 -89 -161.5 -137t-169.5 -59l-41 -187h-103z"/>
<glyph glyph-name="sterling" horiz-adv-x="1025" unicode="£" d="M943 356l-124 -356h-826l10 49q68 60 115.5 118.5t86 134t58.5 168.5l41 189h-157l25 116h157l48 220q23 104 67.5 175t112 118t142 70t174.5 23q57 0 126 -8t134 -22l-46 -213h-96q-9 81 -50 119.5t-116 38.5q-72 0 -127.5 -39t-91.5 -110.5t-67 -215.5l-34 -156h391 l-25 -116h-391l-14 -63q-12 -53 -18 -75q-13 -50 -30 -92t-39.5 -78t-62 -86t-84.5 -95l-2 -10h391q39 0 65 4.5t42 14t36.5 34t38.5 57.5t38 86h102z"/>
<glyph glyph-name="currency" horiz-adv-x="1134" unicode="¤" d="M837 675q0 68 -30 123.5t-84 86.5t-122 31t-122.5 -31.5t-85 -86.5t-30.5 -123q0 -69 29.5 -124t84 -87t124.5 -32q67 0 121 31.5t84.5 87t30.5 124.5zM910 462l123 -127l-94 -95l-127 127q-89 -70 -211 -70q-124 0 -214 70l-126 -127l-94 95l123 127q-70 97 -70 213 q0 57 17.5 110t52.5 105l-123 123l94 94l126 -123q96 69 214 69q115 0 211 -69l127 126l94 -97l-123 -123q35 -52 52.5 -105t17.5 -110q0 -116 -70 -213z"/>
<glyph glyph-name="yen" horiz-adv-x="1227" unicode="¥" d="M628 1365l-11 -49q-42 -4 -64 -24.5t-22 -63.5q0 -61 28 -160l108 -382l250 334q55 73 79.5 114.5t34.5 73.5q8 24 8 46q0 28 -19 43t-55 19l11 49h370l-11 -49q-24 -5 -41.5 -14.5t-40 -30.5t-61 -67.5t-98.5 -124.5l-222 -288h273l-21 -96h-326l-93 -121l-18 -79h394 l-21 -96h-394l-30 -140q-4 -18 -7.5 -41.5t-5 -44t-1.5 -38.5q0 -31 10 -48.5t30 -25.5t69 -12l-11 -49h-417l11 49q47 5 71 23.5t42.5 64t42.5 161.5l21 101h-394l21 96h394l17 79l-35 121h-333l21 96h284l-82 288q-33 116 -51.5 157t-40.5 58t-57 22l9 49h384z"/>
<glyph glyph-name="brokenbar" horiz-adv-x="646" unicode="¦" d="M200 -430h-154l173 783h154zM283 646l173 785h154l-173 -785h-154z"/>
<glyph glyph-name="section" horiz-adv-x="973" unicode="§" d="M464 865q-189 -102 -189 -260q0 -60 39 -112.5t134 -127.5q76 -60 102 -85q92 53 140.5 115.5t48.5 141.5q0 61 -42.5 118t-138.5 131q-53 41 -94 79zM97 -31q3 -100 52 -149t154 -49q102 0 160 55.5t58 147.5q0 50 -18 89t-57.5 80.5t-122.5 105.5q-77 59 -122 108 t-67 100t-22 113q0 104 72 190t223 164q-39 49 -58 97t-19 99q0 93 45 164.5t133 111.5t207 40q170 0 316 -65l-47 -218h-94q-3 97 -45 147.5t-137 50.5q-70 0 -120 -27.5t-74 -71.5t-24 -95q0 -43 17.5 -78.5t57.5 -76.5t124 -106q84 -66 127.5 -113.5t64.5 -97t21 -111.5 q0 -102 -73.5 -190.5t-221.5 -162.5q40 -46 60 -94.5t20 -116.5q0 -101 -50.5 -174.5t-140.5 -111.5t-204 -38q-90 0 -177 17.5t-159 47.5l47 218h94z"/>
<glyph glyph-name="dieresis" horiz-adv-x="554" unicode="¨" d="M383 1339l-38 -176h-165l38 176h165zM705 1339l-38 -176h-165l38 176h165z"/>
<glyph glyph-name="copyright" horiz-adv-x="1742" unicode="©" d="M1193 1021v-188h-85q-23 65 -49.5 101t-61.5 51.5t-96 15.5q-69 0 -120.5 -41t-80 -123.5t-28.5 -199.5q0 -80 12.5 -150.5t40.5 -124t72.5 -84t109.5 -30.5q80 0 126 40.5t76 136.5h85v-194q-76 -33 -146.5 -45.5t-163.5 -12.5q-189 0 -286 112.5t-97 332.5 q0 137 49 240.5t144 160.5t226 57q84 0 148 -13t125 -42zM1531 622q0 188 -79.5 339.5t-226 236.5t-331.5 85q-184 0 -330.5 -85t-225.5 -236.5t-79 -339.5q0 -191 80.5 -342.5t226 -235.5t328.5 -84q184 0 330 84.5t226.5 236.5t80.5 341zM1656 622q0 -161 -56 -300.5 t-160.5 -243.5t-245 -160t-299.5 -56q-157 0 -295.5 54t-244 156.5t-163.5 244.5t-58 305t58 305t164 244.5t244 156.5t295 54q159 0 299.5 -56t245 -160t160.5 -243.5t56 -300.5z"/>
<glyph glyph-name="ordfeminine" horiz-adv-x="811" unicode="ª" d="M726 490h-600l19 92h600zM638 1023q-148 0 -225.5 -38.5t-77.5 -111.5q0 -35 24 -56t63 -21q53 0 98 26.5t71 65t35 78.5zM615 825l-11 2q-44 -52 -108 -83t-125 -31q-81 0 -126.5 40t-45.5 107q0 106 116.5 165t336.5 62l8 41q8 41 8 79q0 108 -107 108q-52 0 -91 -27.5 t-58 -85.5h-109l20 96q68 33 99.5 45.5t64 21t62.5 12.5t63 4q90 0 139.5 -41.5t49.5 -113.5q0 -44 -12 -113l-38 -184q-11 -52 -14 -72t-3 -34q0 -34 15 -45.5t49 -12.5l-9 -41h-202z"/>
<glyph glyph-name="guillemotleft" horiz-adv-x="960" unicode="«" d="M783 98l-70 -35l-246 402l16 74l415 383l55 -55l-318 -384zM414 98l-70 -35l-246 402l16 74l415 383l55 -55l-318 -384z"/>
<glyph glyph-name="logicalnot" d="M747 294l97 433h-676l29 135h824l-125 -568h-149z" unicode="¬"/>
<glyph glyph-name="registered" horiz-adv-x="1742" unicode="®" d="M750 984v-343h104q119 0 174.5 44.5t55.5 132.5q0 64 -26.5 101t-73.5 52.5t-115 15.5h-30q-38 0 -89 -3zM850 187h-336v44q38 11 55.5 28t25 45t7.5 75v494q0 44 -7 72t-23 45t-58 30v44h407q110 0 179.5 -25t106 -75t36.5 -135q0 -80 -50.5 -136.5t-164.5 -94.5l1 -11 q42 -20 70.5 -51.5t55.5 -87.5l49 -103q15 -32 29.5 -53t28 -33.5t27 -17.5t37.5 -10v-44h-214q-41 70 -71 142l-47 110q-19 45 -37.5 70.5t-38.5 38t-43.5 15.5t-52.5 3h-72v-160q0 -59 7 -93t26 -52.5t67 -29.5v-44zM1531 622q0 188 -79.5 339.5t-226 236.5t-331.5 85 q-184 0 -330.5 -85t-225.5 -236.5t-79 -339.5q0 -191 80.5 -342.5t226 -235.5t328.5 -84q184 0 330 84.5t226.5 236.5t80.5 341zM1656 622q0 -161 -56 -300.5t-160.5 -243.5t-245 -160t-299.5 -56q-157 0 -295.5 54t-244 156.5t-163.5 244.5t-58 305t58 305t164 244.5 t244 156.5t295 54q159 0 299.5 -56t245 -160t160.5 -243.5t56 -300.5z"/>
<glyph glyph-name="macron" horiz-adv-x="554" unicode="¯" d="M682 1188h-501l26 125h501z"/>
<glyph glyph-name="degree" horiz-adv-x="769" unicode="°" d="M517 1282q-56 0 -100 -25.5t-68 -70.5t-24 -103t23.5 -103.5t68 -71t100.5 -25.5q57 0 101.5 25.5t68.5 71t24 103.5t-24 103t-68.5 70.5t-101.5 25.5zM511 783q-87 0 -153.5 39t-102.5 107.5t-36 154.5q0 85 38.5 153.5t107.5 106t156 37.5q86 0 153.5 -38t105 -106 t37.5 -154q0 -85 -39.5 -153.5t-109.5 -107.5t-157 -39z"/>
<glyph glyph-name="plusminus" d="M33 28l30 135h818l-30 -135h-818zM652 648l-75 -341h-150l75 341h-341l30 135h340l81 369h150l-81 -369h344l-30 -135h-343z" unicode="±"/>
<glyph glyph-name="uni00B2" horiz-adv-x="808" unicode="²" d="M579 942q36 0 54 7.5t32.5 24.5t31.5 53h77l-51 -198h-561l10 46q83 135 279 296l90 75q64 54 96 88t49 62t24 54t7 55q0 46 -32.5 72.5t-92.5 26.5q-61 0 -103 -31t-68 -86h-103l30 136q158 55 285 55q60 0 103.5 -14.5t71.5 -38t41 -52.5t13 -58q0 -61 -22 -106 t-81 -101.5t-197 -163.5q-149 -118 -223 -202h240z"/>
<glyph glyph-name="uni00B3" horiz-adv-x="808" unicode="³" d="M334 1486l27 136q74 27 142 41t139 14q62 0 113 -18t82.5 -57t31.5 -98q0 -48 -22.5 -91t-74 -79t-129.5 -66v-10q78 -21 118 -68t40 -112q0 -54 -22.5 -103.5t-68 -85.5t-111.5 -54.5t-149 -18.5q-64 0 -139.5 12.5t-126.5 30.5l32 147h90q6 -59 42.5 -89t110.5 -30 q98 0 150.5 53.5t52.5 152.5q0 59 -46.5 90.5t-138.5 31.5h-81l15 74q78 4 134.5 20t92.5 39.5t55.5 50.5t26.5 52t7 54q0 47 -30.5 73.5t-88.5 26.5q-64 0 -106 -29.5t-70 -89.5h-98z"/>
<glyph glyph-name="acute" horiz-adv-x="554" unicode="´" d="M714 1442l-11 -50l-374 -322l-62 60l263 312h184z"/>
<glyph glyph-name="uni00B5" horiz-adv-x="1128" unicode="µ" d="M699 256q-60 -88 -112.5 -144.5t-107 -87.5t-115.5 -31q-42 0 -76.5 13.5t-71.5 51.5q-13 -68 -20 -155.5t-7 -156.5q0 -28 1 -51l-10 -55l-79 -41h-112l301 1357h168l-123 -545q-15 -66 -23.5 -114.5t-8.5 -88.5q0 -52 27.5 -79t78.5 -27q21 0 44.5 8.5t54.5 30.5 t66.5 61t69 90.5t57 104.5t32.5 94l99 465h173l-142 -633q-5 -23 -14 -70t-9 -78q0 -40 13 -58t41 -18q23 0 55.5 18t72.5 63l56 -56q-56 -55 -99.5 -85t-79.5 -42.5t-78 -12.5q-65 0 -101 38.5t-36 107.5q0 27 7 59.5t19 60.5z"/>
<glyph glyph-name="paragraph" horiz-adv-x="1166" unicode="¶" d="M1076 1261l-371 -1691h-125l371 1691h-184l-371 -1691h-125l246 1117q-105 12 -179 55.5t-110.5 111.5t-36.5 153q0 89 30 156t89 113t138 67.5t204 21.5h634l-23 -104h-187z"/>
<glyph glyph-name="periodcentered" horiz-adv-x="494" unicode="·" d="M423 801l-54 -244h-210l54 244h210z"/>
<glyph glyph-name="cedilla" horiz-adv-x="554" unicode="¸" d="M401 27l-170 -114q4 -14 4 -49q0 -125 -94.5 -202.5t-267.5 -91.5v76q96 8 148.5 58t54.5 145l7 34l291 183z"/>
<glyph glyph-name="uni00B9" horiz-adv-x="808" unicode="¹" d="M613 1020q-9 -42 -9 -66q0 -23 14 -35t49.5 -18.5t107.5 -7.5l-14 -64h-508l13 64q64 2 99 7.5t55 16t32.5 28t20.5 55.5l99 449q3 13 4.5 22.5t1.5 13.5q0 15 -8 20t-22 5q-19 0 -59 -17t-110 -53l-32 70l354 161h57q-21 -80 -42 -175z"/>
<glyph glyph-name="ordmasculine" horiz-adv-x="832" unicode="º" d="M715 490h-589l19 92h589zM370 920q0 -72 30.5 -104.5t92.5 -32.5q28 0 51.5 9t48.5 31t46 57t37.5 85t27 107.5t10.5 99.5q0 69 -27.5 104t-88.5 35q-73 0 -122.5 -55.5t-77.5 -161t-28 -174.5zM468 713q-111 0 -173.5 59.5t-62.5 168.5q0 65 22.5 150t72.5 151.5 t124 102.5t164 36q116 0 176.5 -59.5t60.5 -168.5q0 -43 -8 -86t-24 -94t-46 -100t-74 -85.5t-102 -55.5t-130 -19z"/>
<glyph glyph-name="guillemotright" horiz-adv-x="960" unicode="»" d="M183 882l70 35l246 -402l-16 -74l-415 -383l-55 55l318 384zM552 882l70 35l246 -402l-16 -74l-415 -383l-55 55l318 384z"/>
<glyph glyph-name="onequarter" horiz-adv-x="1757" unicode="¼" d="M548 724q-9 -42 -9 -66q0 -23 14 -35t49.5 -18.5t107.5 -7.5l-14 -64h-508l13 64q64 2 99 7.5t55 16t32.5 28t20.5 55.5l99 449q3 13 4.5 22.5t1.5 13.5q0 15 -8 20t-22 5q-19 0 -59 -17t-110 -53l-32 70l354 161h57q-21 -80 -42 -175zM1570 1365l-1140 -1461h-151 l1143 1461h148zM1091 231v-7h243l32 147q23 108 53 212h-10zM1204 -51q34 3 50.5 15.5t27 39.5t21.5 81l14 63h-371l13 67l497 528h122l-116 -519h18q32 0 50 5t31 19t25 46h75l-42 -146h-173l-15 -72q-6 -27 -8.5 -45t-2.5 -35q0 -23 17.5 -33.5t54.5 -13.5l-9 -45h-289z "/>
<glyph glyph-name="onehalf" horiz-adv-x="1806" unicode="½" d="M548 724q-9 -42 -9 -66q0 -23 14 -35t49.5 -18.5t107.5 -7.5l-14 -64h-508l13 64q64 2 99 7.5t55 16t32.5 28t20.5 55.5l99 449q3 13 4.5 22.5t1.5 13.5q0 15 -8 20t-22 5q-19 0 -59 -17t-110 -53l-32 70l354 161h57q-21 -80 -42 -175zM1570 1365l-1140 -1461h-151 l1143 1461h148zM1373 17q36 0 54 7.5t32.5 24.5t31.5 53h77l-51 -198h-561l10 46q83 135 279 296l90 75q64 54 96 88t49 62t24 54t7 55q0 46 -32.5 72.5t-92.5 26.5q-61 0 -103 -31t-68 -86h-103l30 136q158 55 285 55q60 0 103.5 -14.5t71.5 -38t41 -52.5t13 -58 q0 -61 -22 -106t-81 -101.5t-197 -163.5q-149 -118 -223 -202h240z"/>
<glyph glyph-name="threequarters" horiz-adv-x="1757" unicode="¾" d="M269 1190l27 136q74 27 142 41t139 14q62 0 113 -18t82.5 -57t31.5 -98q0 -48 -22.5 -91t-74 -79t-129.5 -66v-10q78 -21 118 -68t40 -112q0 -54 -22.5 -103.5t-68 -85.5t-111.5 -54.5t-149 -18.5q-64 0 -139.5 12.5t-126.5 30.5l32 147h90q6 -59 42.5 -89t110.5 -30 q98 0 150.5 53.5t52.5 152.5q0 59 -46.5 90.5t-138.5 31.5h-81l15 74q78 4 134.5 20t92.5 39.5t55.5 50.5t26.5 52t7 54q0 47 -30.5 73.5t-88.5 26.5q-64 0 -106 -29.5t-70 -89.5h-98zM1570 1365l-1140 -1461h-151l1143 1461h148zM1091 231v-7h243l32 147q23 108 53 212h-10 zM1204 -51q34 3 50.5 15.5t27 39.5t21.5 81l14 63h-371l13 67l497 528h122l-116 -519h18q32 0 50 5t31 19t25 46h75l-42 -146h-173l-15 -72q-6 -27 -8.5 -45t-2.5 -35q0 -23 17.5 -33.5t54.5 -13.5l-9 -45h-289z"/>
<glyph glyph-name="questiondown" horiz-adv-x="834" unicode="¿" d="M546 540l-7 -34q-9 -45 -27.5 -82.5t-57 -86t-110.5 -121.5q-48 -50 -89 -96.5t-70.5 -95t-45.5 -101.5t-16 -116q0 -72 38 -112t103 -40q74 0 128 47.5t81 140.5h129l-35 -164q-127 -61 -201 -82.5t-144 -21.5q-96 0 -163 32t-98.5 85t-31.5 118q0 42 10 80t30.5 75 t53 76.5t74 81.5t134.5 131q51 48 81 81.5t46 60t25 51.5t19 68l5 25h139zM416 724l51 232h190l-51 -232h-190z"/>
<glyph glyph-name="Agrave" horiz-adv-x="1205" unicode="À" d="M401 540h391l-17 322q-3 66 -5 165t-2 143h-11zM678 0l11 49q45 4 70.5 26t36 61t10.5 103q0 39 -3 85l-7 129h-440l-55 -98q-39 -69 -57 -118.5t-18 -87.5q0 -84 101 -100l-11 -49h-409l11 49q31 4 58.5 24.5t58.5 62t87 137.5l641 1108h151l72 -1115q5 -79 18 -123.5 t35.5 -66t65.5 -27.5l-11 -49h-416zM827 1782l192 -257l-58 -59l-326 266l11 50h181z"/>
<glyph glyph-name="Aacute" horiz-adv-x="1205" unicode="Á" d="M401 540h391l-17 322q-3 66 -5 165t-2 143h-11zM678 0l11 49q45 4 70.5 26t36 61t10.5 103q0 39 -3 85l-7 129h-440l-55 -98q-39 -69 -57 -118.5t-18 -87.5q0 -84 101 -100l-11 -49h-409l11 49q31 4 58.5 24.5t58.5 62t87 137.5l641 1108h151l72 -1115q5 -79 18 -123.5 t35.5 -66t65.5 -27.5l-11 -49h-416zM1200 1782l-11 -50l-425 -268l-50 71l268 247h218z"/>
<glyph glyph-name="Acircumflex" horiz-adv-x="1205" unicode="Â" d="M401 540h391l-17 322q-3 66 -5 165t-2 143h-11zM678 0l11 49q45 4 70.5 26t36 61t10.5 103q0 39 -3 85l-7 129h-440l-55 -98q-39 -69 -57 -118.5t-18 -87.5q0 -84 101 -100l-11 -49h-409l11 49q31 4 58.5 24.5t58.5 62t87 137.5l641 1108h151l72 -1115q5 -79 18 -123.5 t35.5 -66t65.5 -27.5l-11 -49h-416zM985 1780l161 -261l-66 -50l-180 182h-10l-263 -183l-52 62l274 250h136z"/>
<glyph glyph-name="Atilde" horiz-adv-x="1205" unicode="Ã" d="M401 540h391l-17 322q-3 66 -5 165t-2 143h-11zM678 0l11 49q45 4 70.5 26t36 61t10.5 103q0 39 -3 85l-7 129h-440l-55 -98q-39 -69 -57 -118.5t-18 -87.5q0 -84 101 -100l-11 -49h-409l11 49q31 4 58.5 24.5t58.5 62t87 137.5l641 1108h151l72 -1115q5 -79 18 -123.5 t35.5 -66t65.5 -27.5l-11 -49h-416zM1145 1720l69 -48q-50 -75 -88.5 -116t-70.5 -57t-71 -16q-23 0 -42 6t-35.5 16t-49.5 38q-30 24 -43 33t-25 13.5t-25 4.5q-25 0 -45 -9.5t-44 -34.5t-54 -67l-70 47q61 87 93 122t64.5 51.5t77.5 16.5q16 0 29.5 -3.5t26.5 -9.5t23 -13 t39 -30q41 -34 60.5 -44.5t39.5 -10.5q23 0 43 10t44 34t54 67z"/>
<glyph glyph-name="Adieresis" horiz-adv-x="1205" unicode="Ä" d="M401 540h391l-17 322q-3 66 -5 165t-2 143h-11zM678 0l11 49q45 4 70.5 26t36 61t10.5 103q0 39 -3 85l-7 129h-440l-55 -98q-39 -69 -57 -118.5t-18 -87.5q0 -84 101 -100l-11 -49h-409l11 49q31 4 58.5 24.5t58.5 62t87 137.5l641 1108h151l72 -1115q5 -79 18 -123.5 t35.5 -66t65.5 -27.5l-11 -49h-416zM810 1691l-38 -176h-165l38 176h165zM1160 1691l-38 -176h-165l38 176h165z"/>
<glyph glyph-name="Aring" horiz-adv-x="1205" unicode="Å" d="M401 540h391l-17 322q-3 66 -5 165t-2 143h-11zM678 0l11 49q45 4 70.5 26t36 61t10.5 103q0 39 -3 85l-7 129h-440l-55 -98q-39 -69 -57 -118.5t-18 -87.5q0 -84 101 -100l-11 -49h-409l11 49q31 4 58.5 24.5t58.5 62t87 137.5l641 1108h151l72 -1115q5 -79 18 -123.5 t35.5 -66t65.5 -27.5l-11 -49h-416zM766 1578q0 -42 21.5 -67t67.5 -25q48 0 84 28.5t53.5 72.5t17.5 85q0 44 -23 67.5t-65 23.5q-43 0 -79 -25t-56.5 -68t-20.5 -92zM844 1424q-86 0 -132.5 38.5t-46.5 109.5q0 46 16.5 94t53.5 84.5t87.5 55.5t107.5 19q90 0 135.5 -38.5 t45.5 -110.5q0 -66 -31 -126t-92 -93t-144 -33z"/>
<glyph glyph-name="AE" horiz-adv-x="1709" unicode="Æ" d="M826 540l72 461l29 162q5 27 10 48h-9l-465 -671h363zM1700 1058h-96q-3 72 -11 112.5t-18 60t-23 29t-32.5 13.5t-55.5 4h-350l-81 -524h182q44 0 73.5 12t54.5 41.5t56 90.5h91l-90 -384h-85q0 55 -4 81t-10.5 38.5t-16.5 19.5t-26 10t-53 3h-185l-89 -577h242 q44 0 74.5 6.5t55.5 22.5t48 41.5t47.5 65.5t66.5 122h97l-88 -346h-833l11 49q42 7 65.5 25t38 56.5t26.5 119.5l30 203h-404l-70 -98q-66 -92 -89 -136t-23 -80q0 -34 25 -58t71 -32l-10 -49h-414l11 49q40 5 92.5 54t139.5 170l774 1092h854z"/>
<glyph glyph-name="Ccedilla" horiz-adv-x="1105" unicode="Ç" d="M1184 1330l-60 -271h-96q-8 123 -53.5 177.5t-146.5 54.5q-84 0 -158 -49.5t-140 -143t-115 -219t-75 -256t-26 -235.5q0 -163 53.5 -239.5t167.5 -76.5q75 0 131 22.5t105 76t97 149.5h96l-61 -284q-134 -36 -257 -46l-114 -77q4 -14 4 -49q0 -125 -94.5 -202.5 t-267.5 -91.5v76q96 8 148.5 58t54.5 145l7 34l161 101h-34q-124 0 -211 51.5t-131 149t-44 234.5q0 72 10 140q12 84 38 183q33 123 83 224q54 107 123 189q65 76 141 127q70 47 151 73t172 26t168.5 -11t172.5 -40z"/>
<glyph glyph-name="Egrave" horiz-adv-x="1164" unicode="È" d="M1224 1365l-69 -307h-96q-3 72 -11 112.5t-18 60t-23 29t-32.5 13.5t-55.5 4h-326l-114 -524h191q44 0 73.5 12t54.5 41.5t56 90.5h91l-90 -384h-85q0 55 -4 81t-10.5 38.5t-16.5 19.5t-26 10t-53 3h-200l-128 -577h296q44 0 74.5 6.5t55.5 22.5t48 41.5t47.5 65.5 t66.5 122h97l-88 -346h-887l11 49q38 6 57 19.5t32 37.5t24 58.5t33 133.5l170 770q22 100 22 161q0 47 -24 65.5t-74 21.5l11 49h920zM769 1782l192 -257l-58 -59l-326 266l11 50h181z"/>
<glyph glyph-name="Eacute" horiz-adv-x="1164" unicode="É" d="M1224 1365l-69 -307h-96q-3 72 -11 112.5t-18 60t-23 29t-32.5 13.5t-55.5 4h-326l-114 -524h191q44 0 73.5 12t54.5 41.5t56 90.5h91l-90 -384h-85q0 55 -4 81t-10.5 38.5t-16.5 19.5t-26 10t-53 3h-200l-128 -577h296q44 0 74.5 6.5t55.5 22.5t48 41.5t47.5 65.5 t66.5 122h97l-88 -346h-887l11 49q38 6 57 19.5t32 37.5t24 58.5t33 133.5l170 770q22 100 22 161q0 47 -24 65.5t-74 21.5l11 49h920zM1156 1782l-11 -50l-425 -268l-50 71l268 247h218z"/>
<glyph glyph-name="Ecircumflex" horiz-adv-x="1164" unicode="Ê" d="M1224 1365l-69 -307h-96q-3 72 -11 112.5t-18 60t-23 29t-32.5 13.5t-55.5 4h-326l-114 -524h191q44 0 73.5 12t54.5 41.5t56 90.5h91l-90 -384h-85q0 55 -4 81t-10.5 38.5t-16.5 19.5t-26 10t-53 3h-200l-128 -577h296q44 0 74.5 6.5t55.5 22.5t48 41.5t47.5 65.5 t66.5 122h97l-88 -346h-887l11 49q38 6 57 19.5t32 37.5t24 58.5t33 133.5l170 770q22 100 22 161q0 47 -24 65.5t-74 21.5l11 49h920zM947 1780l161 -261l-66 -50l-180 182h-10l-263 -183l-52 62l274 250h136z"/>
<glyph glyph-name="Edieresis" horiz-adv-x="1164" unicode="Ë" d="M1224 1365l-69 -307h-96q-3 72 -11 112.5t-18 60t-23 29t-32.5 13.5t-55.5 4h-326l-114 -524h191q44 0 73.5 12t54.5 41.5t56 90.5h91l-90 -384h-85q0 55 -4 81t-10.5 38.5t-16.5 19.5t-26 10t-53 3h-200l-128 -577h296q44 0 74.5 6.5t55.5 22.5t48 41.5t47.5 65.5 t66.5 122h97l-88 -346h-887l11 49q38 6 57 19.5t32 37.5t24 58.5t33 133.5l170 770q22 100 22 161q0 47 -24 65.5t-74 21.5l11 49h920zM766 1691l-38 -176h-165l38 176h165zM1116 1691l-38 -176h-165l38 176h165z"/>
<glyph glyph-name="Igrave" horiz-adv-x="656" unicode="Ì" d="M376 291q-13 -59 -17 -93.5t-4 -62.5q0 -45 22.5 -63.5t75.5 -22.5l-11 -49h-400l11 49q38 6 57 19.5t32 37.5t24 58.5t33 133.5l170 770q10 46 16 88.5t6 72.5q0 47 -24 65.5t-74 21.5l11 49h400l-11 -49q-38 -8 -54.5 -18t-30 -30t-27 -62.5t-34.5 -138.5zM505 1782 l192 -257l-58 -59l-326 266l11 50h181z"/>
<glyph glyph-name="Iacute" horiz-adv-x="656" unicode="Í" d="M376 291q-13 -59 -17 -93.5t-4 -62.5q0 -45 22.5 -63.5t75.5 -22.5l-11 -49h-400l11 49q38 6 57 19.5t32 37.5t24 58.5t33 133.5l170 770q10 46 16 88.5t6 72.5q0 47 -24 65.5t-74 21.5l11 49h400l-11 -49q-38 -8 -54.5 -18t-30 -30t-27 -62.5t-34.5 -138.5zM893 1782 l-11 -50l-425 -268l-50 71l268 247h218z"/>
<glyph glyph-name="Icircumflex" horiz-adv-x="656" unicode="Î" d="M376 291q-13 -59 -17 -93.5t-4 -62.5q0 -45 22.5 -63.5t75.5 -22.5l-11 -49h-400l11 49q38 6 57 19.5t32 37.5t24 58.5t33 133.5l170 770q10 46 16 88.5t6 72.5q0 47 -24 65.5t-74 21.5l11 49h400l-11 -49q-38 -8 -54.5 -18t-30 -30t-27 -62.5t-34.5 -138.5zM683 1780 l161 -261l-66 -50l-180 182h-10l-263 -183l-52 62l274 250h136z"/>
<glyph glyph-name="Idieresis" horiz-adv-x="656" unicode="Ï" d="M376 291q-13 -59 -17 -93.5t-4 -62.5q0 -45 22.5 -63.5t75.5 -22.5l-11 -49h-400l11 49q38 6 57 19.5t32 37.5t24 58.5t33 133.5l170 770q10 46 16 88.5t6 72.5q0 47 -24 65.5t-74 21.5l11 49h400l-11 -49q-38 -8 -54.5 -18t-30 -30t-27 -62.5t-34.5 -138.5zM502 1691 l-38 -176h-165l38 176h165zM852 1691l-38 -176h-165l38 176h165z"/>
<glyph glyph-name="Eth" horiz-adv-x="1330" unicode="Ð" d="M484 761h304l-20 -92h-304l-126 -577q29 -3 111 -3q101 0 183.5 22t152 70.5t126.5 129.5t92.5 164.5t55.5 179.5t20 203q0 209 -97.5 314.5t-289.5 105.5q-44 0 -95 -3zM122 761h185l68 307q10 45 16 88t6 73q0 47 -24 65.5t-74 21.5l11 49h379q151 0 245 -23t175.5 -83 t122.5 -159.5t41 -235.5q0 -135 -31 -258t-89 -226.5t-139 -180t-157 -117.5t-170 -61.5t-219 -20.5h-420l11 49q38 6 57 19.5t32 37.5t24 58.5t33 133.5l82 371h-185z"/>
<glyph glyph-name="Ntilde" horiz-adv-x="1374" unicode="Ñ" d="M1428 1365l-11 -49q-38 -8 -54.5 -18t-30 -30t-27 -62.5t-34.5 -138.5l-235 -1067h-136l-292 858q-53 154 -93 307h-13q-6 -51 -33 -194.5t-57 -280.5l-88 -399q-9 -42 -15 -81t-6 -75q0 -45 22.5 -63.5t75.5 -22.5l-11 -49h-350l11 49q38 6 57 19.5t32 37.5t24 58.5 t33 133.5l170 770q10 43 16 82t6 79q0 47 -24 65.5t-74 21.5l11 49h319l264 -779q57 -168 88 -284h11q8 61 36.5 203t52.5 248l70 315q7 33 14.5 78t7.5 83q0 47 -24 65.5t-74 21.5l11 49h350zM1206 1720l69 -48q-50 -75 -88.5 -116t-70.5 -57t-71 -16q-23 0 -42 6t-35.5 16 t-49.5 38q-30 24 -43 33t-25 13.5t-25 4.5q-25 0 -45 -9.5t-44 -34.5t-54 -67l-70 47q61 87 93 122t64.5 51.5t77.5 16.5q16 0 29.5 -3.5t26.5 -9.5t23 -13t39 -30q41 -34 60.5 -44.5t39.5 -10.5q23 0 43 10t44 34t54 67z"/>
<glyph glyph-name="Ograve" horiz-adv-x="1273" unicode="Ò" d="M1049 987q0 306 -223 306q-54 0 -102 -18q-56 -22 -107 -65q-57 -49 -106 -125q-58 -90 -101 -205q-45 -120 -72 -259q-26 -133 -26 -241q0 -156 56.5 -232.5t168.5 -76.5q90 0 171 55q100 67 180 213q86 157 133 383q28 133 28 265zM837 1381q124 0 214.5 -48t139 -146 t48.5 -242q0 -155 -53 -348.5t-153.5 -335t-229.5 -210t-270 -68.5q-140 0 -231.5 54t-134.5 150.5t-43 227.5q0 127 36.5 284.5t100 284.5t151 216t195.5 135t230 46zM828 1782l192 -257l-58 -59l-326 266l11 50h181z"/>
<glyph glyph-name="Oacute" horiz-adv-x="1273" unicode="Ó" d="M1049 987q0 306 -223 306q-54 0 -102 -18q-56 -22 -107 -65q-57 -49 -106 -125q-58 -90 -101 -205q-45 -120 -72 -259q-26 -133 -26 -241q0 -156 56.5 -232.5t168.5 -76.5q90 0 171 55q100 67 180 213q86 157 133 383q28 133 28 265zM837 1381q124 0 214.5 -48t139 -146 t48.5 -242q0 -155 -53 -348.5t-153.5 -335t-229.5 -210t-270 -68.5q-140 0 -231.5 54t-134.5 150.5t-43 227.5q0 127 36.5 284.5t100 284.5t151 216t195.5 135t230 46zM1201 1782l-11 -50l-425 -268l-50 71l268 247h218z"/>
<glyph glyph-name="Ocircumflex" horiz-adv-x="1273" unicode="Ô" d="M1049 987q0 306 -223 306q-54 0 -102 -18q-56 -22 -107 -65q-57 -49 -106 -125q-58 -90 -101 -205q-45 -120 -72 -259q-26 -133 -26 -241q0 -156 56.5 -232.5t168.5 -76.5q90 0 171 55q100 67 180 213q86 157 133 383q28 133 28 265zM837 1381q124 0 214.5 -48t139 -146 t48.5 -242q0 -155 -53 -348.5t-153.5 -335t-229.5 -210t-270 -68.5q-140 0 -231.5 54t-134.5 150.5t-43 227.5q0 127 36.5 284.5t100 284.5t151 216t195.5 135t230 46zM991 1780l161 -261l-66 -50l-180 182h-10l-263 -183l-52 62l274 250h136z"/>
<glyph glyph-name="Otilde" horiz-adv-x="1273" unicode="Õ" d="M1049 987q0 306 -223 306q-54 0 -102 -18q-56 -22 -107 -65q-57 -49 -106 -125q-58 -90 -101 -205q-45 -120 -72 -259q-26 -133 -26 -241q0 -156 56.5 -232.5t168.5 -76.5q90 0 171 55q100 67 180 213q86 157 133 383q28 133 28 265zM837 1381q124 0 214.5 -48t139 -146 t48.5 -242q0 -155 -53 -348.5t-153.5 -335t-229.5 -210t-270 -68.5q-140 0 -231.5 54t-134.5 150.5t-43 227.5q0 127 36.5 284.5t100 284.5t151 216t195.5 135t230 46zM1146 1720l69 -48q-50 -75 -88.5 -116t-70.5 -57t-71 -16q-23 0 -42 6t-35.5 16t-49.5 38q-30 24 -43 33 t-25 13.5t-25 4.5q-25 0 -45 -9.5t-44 -34.5t-54 -67l-70 47q61 87 93 122t64.5 51.5t77.5 16.5q16 0 29.5 -3.5t26.5 -9.5t23 -13t39 -30q41 -34 60.5 -44.5t39.5 -10.5q23 0 43 10t44 34t54 67z"/>
<glyph glyph-name="Odieresis" horiz-adv-x="1273" unicode="Ö" d="M1049 987q0 306 -223 306q-54 0 -102 -18q-56 -22 -107 -65q-57 -49 -106 -125q-58 -90 -101 -205q-45 -120 -72 -259q-26 -133 -26 -241q0 -156 56.5 -232.5t168.5 -76.5q90 0 171 55q100 67 180 213q86 157 133 383q28 133 28 265zM837 1381q124 0 214.5 -48t139 -146 t48.5 -242q0 -155 -53 -348.5t-153.5 -335t-229.5 -210t-270 -68.5q-140 0 -231.5 54t-134.5 150.5t-43 227.5q0 127 36.5 284.5t100 284.5t151 216t195.5 135t230 46zM811 1691l-38 -176h-165l38 176h165zM1161 1691l-38 -176h-165l38 176h165z"/>
<glyph glyph-name="multiply" d="M580 686l345 296l85 -110l-350 -295l220 -299l-114 -90l-215 297l-347 -297l-85 110l352 297l-218 297l114 90z" unicode="×"/>
<glyph glyph-name="Oslash" horiz-adv-x="1273" unicode="Ø" d="M1045 1063l-694 -888q54 -104 186 -104q90 0 171 55q100 67 180 213q86 157 133 383q28 133 28 265q0 32 -4 76zM315 298l695 890q-54 105 -184 105q-54 0 -102 -18q-56 -22 -107 -65q-57 -49 -106 -125q-58 -90 -101 -205q-45 -120 -72 -259q-26 -133 -26 -241 q0 -47 3 -82zM-33 -135l222 281q-65 101 -65 269q0 127 36.5 284.5t100 284.5t151 216t195.5 135t230 46q160 0 263 -80l156 198h139l-222 -281q66 -106 66 -273q0 -155 -53 -348.5t-153.5 -335t-229.5 -210t-270 -68.5q-169 0 -271 80l-156 -198h-139z"/>
<glyph glyph-name="Ugrave" horiz-adv-x="1295" unicode="Ù" d="M260 1316l11 49h402l-11 -49q-38 -8 -54.5 -18t-30 -30t-27 -62.5t-34.5 -138.5l-125 -560q-13 -57 -20.5 -108.5t-7.5 -106.5q0 -109 53.5 -165t161.5 -56q102 0 170 42t109 121t69 205l139 629q10 45 16 88t6 73q0 47 -24 65.5t-74 21.5l11 49h380l-11 -49 q-37 -8 -54.5 -18.5t-31 -30.5t-26.5 -63t-34 -137l-130 -599q-39 -179 -110 -285t-177.5 -153t-260.5 -47q-173 0 -265 83.5t-92 243.5q0 56 11.5 128.5t32.5 163.5l104 466q12 53 17.5 94.5t5.5 66.5q0 45 -23 64.5t-76 22.5zM759 1782l192 -257l-58 -59l-326 266l11 50 h181z"/>
<glyph glyph-name="Uacute" horiz-adv-x="1295" unicode="Ú" d="M260 1316l11 49h402l-11 -49q-38 -8 -54.5 -18t-30 -30t-27 -62.5t-34.5 -138.5l-125 -560q-13 -57 -20.5 -108.5t-7.5 -106.5q0 -109 53.5 -165t161.5 -56q102 0 170 42t109 121t69 205l139 629q10 45 16 88t6 73q0 47 -24 65.5t-74 21.5l11 49h380l-11 -49 q-37 -8 -54.5 -18.5t-31 -30.5t-26.5 -63t-34 -137l-130 -599q-39 -179 -110 -285t-177.5 -153t-260.5 -47q-173 0 -265 83.5t-92 243.5q0 56 11.5 128.5t32.5 163.5l104 466q12 53 17.5 94.5t5.5 66.5q0 45 -23 64.5t-76 22.5zM1222 1782l-11 -50l-425 -268l-50 71l268 247 h218z"/>
<glyph glyph-name="Ucircumflex" horiz-adv-x="1295" unicode="Û" d="M260 1316l11 49h402l-11 -49q-38 -8 -54.5 -18t-30 -30t-27 -62.5t-34.5 -138.5l-125 -560q-13 -57 -20.5 -108.5t-7.5 -106.5q0 -109 53.5 -165t161.5 -56q102 0 170 42t109 121t69 205l139 629q10 45 16 88t6 73q0 47 -24 65.5t-74 21.5l11 49h380l-11 -49 q-37 -8 -54.5 -18.5t-31 -30.5t-26.5 -63t-34 -137l-130 -599q-39 -179 -110 -285t-177.5 -153t-260.5 -47q-173 0 -265 83.5t-92 243.5q0 56 11.5 128.5t32.5 163.5l104 466q12 53 17.5 94.5t5.5 66.5q0 45 -23 64.5t-76 22.5zM1007 1780l161 -261l-66 -50l-180 182h-10 l-263 -183l-52 62l274 250h136z"/>
<glyph glyph-name="Udieresis" horiz-adv-x="1295" unicode="Ü" d="M260 1316l11 49h402l-11 -49q-38 -8 -54.5 -18t-30 -30t-27 -62.5t-34.5 -138.5l-125 -560q-13 -57 -20.5 -108.5t-7.5 -106.5q0 -109 53.5 -165t161.5 -56q102 0 170 42t109 121t69 205l139 629q10 45 16 88t6 73q0 47 -24 65.5t-74 21.5l11 49h380l-11 -49 q-37 -8 -54.5 -18.5t-31 -30.5t-26.5 -63t-34 -137l-130 -599q-39 -179 -110 -285t-177.5 -153t-260.5 -47q-173 0 -265 83.5t-92 243.5q0 56 11.5 128.5t32.5 163.5l104 466q12 53 17.5 94.5t5.5 66.5q0 45 -23 64.5t-76 22.5zM827 1691l-38 -176h-165l38 176h165z M1177 1691l-38 -176h-165l38 176h165z"/>
<glyph glyph-name="Yacute" horiz-adv-x="1122" unicode="Ý" d="M587 1365l-11 -49q-42 -4 -64 -24.5t-22 -63.5q0 -61 28 -160l106 -377l246 329q55 73 79.5 114.5t34.5 73.5q8 24 8 46q0 28 -19 43t-55 19l11 49h375l-11 -49q-24 -5 -41.5 -14.5t-40 -30.5t-61 -67.5t-98.5 -124.5l-389 -505l-62 -283q-9 -40 -12.5 -62.5t-6 -48 t-2.5 -45.5q0 -31 10 -48.5t30 -25.5t69 -12l-11 -49h-421l11 49q40 6 59 16t33.5 31t29 66t34.5 136l59 276l-145 505q-33 116 -52 157t-40.5 58t-56.5 22l11 49h387zM1141 1782l-11 -50l-425 -268l-50 71l268 247h218z"/>
<glyph glyph-name="Thorn" horiz-adv-x="1147" unicode="Þ" d="M535 1015l-133 -606h101q121 0 195.5 25t122 77.5t73.5 124.5t26 158q0 85 -30 134t-85 69.5t-140 20.5q-62 0 -130 -3zM383 326l-7 -35q-10 -52 -15.5 -88.5t-5.5 -67.5q0 -45 22.5 -63.5t75.5 -22.5l-11 -49h-400l11 49q38 6 57 19.5t32 37.5t24 58.5t33 133.5l170 770 q10 46 16 88.5t6 72.5q0 47 -24 65.5t-74 21.5l11 49h400l-11 -49q-36 -7 -52.5 -16.5t-29.5 -28t-25.5 -54t-29.5 -111.5h131q119 0 195.5 -18.5t126 -57t74 -97.5t24.5 -137q0 -150 -71 -260t-192.5 -162t-291.5 -52q-101 0 -169 4z"/>
<glyph glyph-name="germandbls" horiz-adv-x="1160" unicode="ß" d="M254 -17q-34 -157 -92 -251t-143.5 -136.5t-208.5 -42.5q-44 0 -79 10l23 88q24 -8 70 -8q53 0 86.5 14t62 45.5t54 92t48.5 159.5l203 901h-121l12 51q64 7 96 33.5t53 91.5q17 55 40.5 106.5t56 97t74.5 82.5t97.5 63.5t125 41t156.5 14.5q60 0 111.5 -12.5t89 -38.5 t59 -67.5t21.5 -100.5q0 -69 -27 -124t-76.5 -102t-132.5 -100t-118 -81.5t-49.5 -52.5t-14.5 -55q0 -30 11 -51.5t40.5 -45t96.5 -63.5q63 -38 101 -69.5t60 -62.5t32 -65.5t10 -83.5q0 -89 -47.5 -152.5t-129 -94.5t-185.5 -31q-140 0 -306 47l37 171h83 q11 -72 57.5 -105.5t134.5 -33.5q90 0 142 43.5t52 119.5q0 45 -15 77.5t-49 62.5t-108 75q-60 37 -88 59.5t-45 47t-24.5 50.5t-7.5 58q0 45 18.5 82t59 76t142.5 109q67 45 104.5 83t57.5 83.5t20 108.5q0 77 -40.5 118.5t-115.5 41.5q-77 0 -130.5 -24.5t-101.5 -79.5 t-83 -140.5t-67 -235.5z"/>
<glyph glyph-name="agrave" horiz-adv-x="1077" unicode="à" d="M746 609q9 41 12 71t3 65q0 78 -33 113.5t-110 35.5q-42 0 -80 -13.5t-77 -45t-74.5 -82.5t-64.5 -124t-45 -156.5t-16 -162.5q0 -104 28.5 -155.5t95.5 -51.5q31 0 64.5 14t74.5 51.5t93 110.5q47 67 74.5 132.5t45.5 154.5zM834 907l92 66l64 -16l-153 -679 q-14 -60 -19 -92.5t-5 -53.5q0 -41 23 -59.5t88 -23.5l-9 -49h-286l63 251l-13 4q-96 -140 -182 -205t-182 -65q-110 0 -170.5 83t-60.5 233q0 96 22 192.5t66.5 183t106.5 152.5t143.5 105t177.5 39q62 0 118 -14.5t116 -51.5zM667 1442l133 -328l-71 -44l-235 322l11 50 h162z"/>
<glyph glyph-name="aacute" horiz-adv-x="1077" unicode="á" d="M746 609q9 41 12 71t3 65q0 78 -33 113.5t-110 35.5q-42 0 -80 -13.5t-77 -45t-74.5 -82.5t-64.5 -124t-45 -156.5t-16 -162.5q0 -104 28.5 -155.5t95.5 -51.5q31 0 64.5 14t74.5 51.5t93 110.5q47 67 74.5 132.5t45.5 154.5zM834 907l92 66l64 -16l-153 -679 q-14 -60 -19 -92.5t-5 -53.5q0 -41 23 -59.5t88 -23.5l-9 -49h-286l63 251l-13 4q-96 -140 -182 -205t-182 -65q-110 0 -170.5 83t-60.5 233q0 96 22 192.5t66.5 183t106.5 152.5t143.5 105t177.5 39q62 0 118 -14.5t116 -51.5zM1001 1442l-11 -50l-374 -322l-62 60l263 312 h184z"/>
<glyph glyph-name="acircumflex" horiz-adv-x="1077" unicode="â" d="M746 609q9 41 12 71t3 65q0 78 -33 113.5t-110 35.5q-42 0 -80 -13.5t-77 -45t-74.5 -82.5t-64.5 -124t-45 -156.5t-16 -162.5q0 -104 28.5 -155.5t95.5 -51.5q31 0 64.5 14t74.5 51.5t93 110.5q47 67 74.5 132.5t45.5 154.5zM834 907l92 66l64 -16l-153 -679 q-14 -60 -19 -92.5t-5 -53.5q0 -41 23 -59.5t88 -23.5l-9 -49h-286l63 251l-13 4q-96 -140 -182 -205t-182 -65q-110 0 -170.5 83t-60.5 233q0 96 22 192.5t66.5 183t106.5 152.5t143.5 105t177.5 39q62 0 118 -14.5t116 -51.5zM819 1432l132 -337l-79 -35l-138 243h-10 l-256 -243l-62 57l277 315h136z"/>
<glyph glyph-name="atilde" horiz-adv-x="1077" unicode="ã" d="M746 609q9 41 12 71t3 65q0 78 -33 113.5t-110 35.5q-42 0 -80 -13.5t-77 -45t-74.5 -82.5t-64.5 -124t-45 -156.5t-16 -162.5q0 -104 28.5 -155.5t95.5 -51.5q31 0 64.5 14t74.5 51.5t93 110.5q47 67 74.5 132.5t45.5 154.5zM834 907l92 66l64 -16l-153 -679 q-14 -60 -19 -92.5t-5 -53.5q0 -41 23 -59.5t88 -23.5l-9 -49h-286l63 251l-13 4q-96 -140 -182 -205t-182 -65q-110 0 -170.5 83t-60.5 233q0 96 22 192.5t66.5 183t106.5 152.5t143.5 105t177.5 39q62 0 118 -14.5t116 -51.5zM970 1365l69 -48q-50 -75 -88.5 -116 t-70.5 -57t-71 -16q-23 0 -42 6t-35.5 16t-49.5 38q-30 24 -43 33t-25 13.5t-25 4.5q-25 0 -45 -9.5t-44 -34.5t-54 -67l-70 47q61 87 93 122t64.5 51.5t77.5 16.5q16 0 29.5 -3.5t26.5 -9.5t23 -13t39 -30q41 -34 60.5 -44.5t39.5 -10.5q23 0 43 10t44 34t54 67z"/>
<glyph glyph-name="adieresis" horiz-adv-x="1077" unicode="ä" d="M746 609q9 41 12 71t3 65q0 78 -33 113.5t-110 35.5q-42 0 -80 -13.5t-77 -45t-74.5 -82.5t-64.5 -124t-45 -156.5t-16 -162.5q0 -104 28.5 -155.5t95.5 -51.5q31 0 64.5 14t74.5 51.5t93 110.5q47 67 74.5 132.5t45.5 154.5zM834 907l92 66l64 -16l-153 -679 q-14 -60 -19 -92.5t-5 -53.5q0 -41 23 -59.5t88 -23.5l-9 -49h-286l63 251l-13 4q-96 -140 -182 -205t-182 -65q-110 0 -170.5 83t-60.5 233q0 96 22 192.5t66.5 183t106.5 152.5t143.5 105t177.5 39q62 0 118 -14.5t116 -51.5zM649 1339l-38 -176h-165l38 176h165z M971 1339l-38 -176h-165l38 176h165z"/>
<glyph glyph-name="aring" horiz-adv-x="1077" unicode="å" d="M746 609q9 41 12 71t3 65q0 78 -33 113.5t-110 35.5q-42 0 -80 -13.5t-77 -45t-74.5 -82.5t-64.5 -124t-45 -156.5t-16 -162.5q0 -104 28.5 -155.5t95.5 -51.5q31 0 64.5 14t74.5 51.5t93 110.5q47 67 74.5 132.5t45.5 154.5zM834 907l92 66l64 -16l-153 -679 q-14 -60 -19 -92.5t-5 -53.5q0 -41 23 -59.5t88 -23.5l-9 -49h-286l63 251l-13 4q-96 -140 -182 -205t-182 -65q-110 0 -170.5 83t-60.5 233q0 96 22 192.5t66.5 183t106.5 152.5t143.5 105t177.5 39q62 0 118 -14.5t116 -51.5zM591 1225q0 -42 21.5 -67t67.5 -25 q48 0 84 28.5t53.5 72.5t17.5 85q0 44 -23 67.5t-65 23.5q-43 0 -79 -25t-56.5 -68t-20.5 -92zM669 1071q-86 0 -132.5 38.5t-46.5 109.5q0 46 16.5 94t53.5 84.5t87.5 55.5t107.5 19q90 0 135.5 -38.5t45.5 -110.5q0 -66 -31 -126t-92 -93t-144 -33z"/>
<glyph glyph-name="ae" horiz-adv-x="1452" unicode="æ" d="M619 443h-8q-89 0 -166 -11.5t-133.5 -38t-88.5 -69t-32 -103.5q0 -124 134 -124q68 0 125.5 35t95.5 94.5t54 131.5zM798 516q92 1 161.5 10.5t119.5 26t83 39.5t52.5 50.5t27 58t7.5 63.5q0 61 -28.5 95.5t-84.5 34.5q-70 0 -137.5 -50.5t-119 -136t-81.5 -191.5z M1330 199q-74 -81 -142 -128t-136 -67t-150 -20q-108 0 -178 52t-98 152h-10q-87 -104 -179 -154t-192 -50q-104 0 -161 53.5t-57 144.5q0 104 63 180t199 119t348 44l16 78q9 46 12 75t3 51q0 80 -37 117t-113 37q-78 0 -128 -40t-82 -124h-130l28 130q84 44 133 65 t94 34.5t84.5 19t81.5 5.5q84 0 133.5 -37t71.5 -120h10q155 157 358 157q121 0 181.5 -49t60.5 -153q0 -170 -159.5 -255t-473.5 -85q-12 -60 -12 -130q0 -105 41 -152.5t134 -47.5q92 0 167 40t157 123z"/>
<glyph glyph-name="ccedilla" horiz-adv-x="887" unicode="ç" d="M735 716q-2 76 -12.5 110t-34 51t-66.5 17q-101 0 -181.5 -80.5t-131.5 -228t-51 -283.5q0 -42 7.5 -79t26 -64t49 -42.5t77.5 -15.5q91 0 157.5 34.5t140.5 108.5l61 -61q-103 -115 -210 -162l-161 -108q4 -14 4 -49q0 -125 -94.5 -202.5t-267.5 -91.5v76q96 8 148.5 58 t54.5 145l7 34l163 102q-11 -2 -39 -2q-145 0 -220 86t-75 250q0 107 40 235t117 225t180 145t220 48q80 0 139.5 -9t105.5 -21l-49 -226h-105z"/>
<glyph glyph-name="egrave" horiz-adv-x="936" unicode="è" d="M282 516q92 1 161.5 10.5t119.5 26t83 39.5t52.5 50.5t27 58t7.5 63.5q0 61 -28.5 95.5t-84.5 34.5q-70 0 -137.5 -50.5t-119 -136t-81.5 -191.5zM814 199q-74 -81 -142 -128t-136 -67t-150 -20q-79 0 -136 25.5t-94.5 70t-55.5 106t-18 133.5q0 107 38.5 229.5 t116.5 220t187 151t232 53.5q121 0 181.5 -49t60.5 -153q0 -170 -159.5 -255t-473.5 -85q-12 -60 -12 -130q0 -105 41 -152.5t134 -47.5q92 0 167 40t157 123zM632 1442l133 -328l-71 -44l-235 322l11 50h162z"/>
<glyph glyph-name="eacute" horiz-adv-x="936" unicode="é" d="M282 516q92 1 161.5 10.5t119.5 26t83 39.5t52.5 50.5t27 58t7.5 63.5q0 61 -28.5 95.5t-84.5 34.5q-70 0 -137.5 -50.5t-119 -136t-81.5 -191.5zM814 199q-74 -81 -142 -128t-136 -67t-150 -20q-79 0 -136 25.5t-94.5 70t-55.5 106t-18 133.5q0 107 38.5 229.5 t116.5 220t187 151t232 53.5q121 0 181.5 -49t60.5 -153q0 -170 -159.5 -255t-473.5 -85q-12 -60 -12 -130q0 -105 41 -152.5t134 -47.5q92 0 167 40t157 123zM966 1442l-11 -50l-374 -322l-62 60l263 312h184z"/>
<glyph glyph-name="ecircumflex" horiz-adv-x="936" unicode="ê" d="M282 516q92 1 161.5 10.5t119.5 26t83 39.5t52.5 50.5t27 58t7.5 63.5q0 61 -28.5 95.5t-84.5 34.5q-70 0 -137.5 -50.5t-119 -136t-81.5 -191.5zM814 199q-74 -81 -142 -128t-136 -67t-150 -20q-79 0 -136 25.5t-94.5 70t-55.5 106t-18 133.5q0 107 38.5 229.5 t116.5 220t187 151t232 53.5q121 0 181.5 -49t60.5 -153q0 -170 -159.5 -255t-473.5 -85q-12 -60 -12 -130q0 -105 41 -152.5t134 -47.5q92 0 167 40t157 123zM783 1432l132 -337l-79 -35l-138 243h-10l-256 -243l-62 57l277 315h136z"/>
<glyph glyph-name="edieresis" horiz-adv-x="936" unicode="ë" d="M282 516q92 1 161.5 10.5t119.5 26t83 39.5t52.5 50.5t27 58t7.5 63.5q0 61 -28.5 95.5t-84.5 34.5q-70 0 -137.5 -50.5t-119 -136t-81.5 -191.5zM814 199q-74 -81 -142 -128t-136 -67t-150 -20q-79 0 -136 25.5t-94.5 70t-55.5 106t-18 133.5q0 107 38.5 229.5 t116.5 220t187 151t232 53.5q121 0 181.5 -49t60.5 -153q0 -170 -159.5 -255t-473.5 -85q-12 -60 -12 -130q0 -105 41 -152.5t134 -47.5q92 0 167 40t157 123zM614 1339l-38 -176h-165l38 176h165zM936 1339l-38 -176h-165l38 176h165z"/>
<glyph glyph-name="igrave" horiz-adv-x="555" unicode="ì" d="M313 250q-11 -51 -14 -74.5t-3 -39.5q0 -30 10 -47t31 -26t69 -14l-9 -49h-310l151 674q13 58 18 92.5t5 57.5q0 29 -8.5 45t-28.5 24t-69 10l11 53l244 9h59zM399 1442l133 -328l-71 -44l-235 322l11 50h162z"/>
<glyph glyph-name="iacute" horiz-adv-x="555" unicode="í" d="M313 250q-11 -51 -14 -74.5t-3 -39.5q0 -30 10 -47t31 -26t69 -14l-9 -49h-310l151 674q13 58 18 92.5t5 57.5q0 29 -8.5 45t-28.5 24t-69 10l11 53l244 9h59zM731 1442l-11 -50l-374 -322l-62 60l263 312h184z"/>
<glyph glyph-name="icircumflex" horiz-adv-x="555" unicode="î" d="M313 250q-11 -51 -14 -74.5t-3 -39.5q0 -30 10 -47t31 -26t69 -14l-9 -49h-310l151 674q13 58 18 92.5t5 57.5q0 29 -8.5 45t-28.5 24t-69 10l11 53l244 9h59zM551 1432l132 -337l-79 -35l-138 243h-10l-256 -243l-62 57l277 315h136z"/>
<glyph glyph-name="idieresis" horiz-adv-x="555" unicode="ï" d="M313 250q-11 -51 -14 -74.5t-3 -39.5q0 -30 10 -47t31 -26t69 -14l-9 -49h-310l151 674q13 58 18 92.5t5 57.5q0 29 -8.5 45t-28.5 24t-69 10l11 53l244 9h59zM381 1339l-38 -176h-165l38 176h165zM703 1339l-38 -176h-165l38 176h165z"/>
<glyph glyph-name="eth" horiz-adv-x="1042" unicode="ð" d="M256 273q0 -108 44 -159t137 -51q75 0 136 46t104.5 132t69 200.5t25.5 194.5q0 108 -43.5 162.5t-130.5 54.5q-74 0 -134.5 -45.5t-106.5 -131.5t-73.5 -202.5t-27.5 -200.5zM386 1132l259 125q-41 33 -75 54t-80 43l31 81q130 -47 232 -125l231 112l40 -80l-205 -97 q31 -33 55.5 -70t46 -87.5t34 -104.5t16.5 -107t4 -94q0 -128 -34 -288.5t-102.5 -273t-177 -174.5t-254.5 -62q-106 0 -179.5 41.5t-110 117t-36.5 177.5q0 74 20.5 165.5t56 163t83 125t104.5 88.5t121.5 52.5t136.5 17.5t124 -19.5t90 -61.5l14 7q-11 196 -125 330 l-281 -136z"/>
<glyph glyph-name="ntilde" horiz-adv-x="1096" unicode="ñ" d="M943 0h-315l127 508q12 49 23.5 108t11.5 106q0 71 -24.5 102t-76.5 31q-42 0 -90.5 -32.5t-101.5 -97t-89.5 -131t-56.5 -161.5l-91 -433h-173l152 683q5 23 13.5 68t8.5 75q0 28 -8.5 43.5t-29 23t-69.5 10.5l12 53l227 9h57l-67 -260l12 -4q98 138 189 204.5t182 66.5 q97 0 147 -53.5t50 -158.5q0 -36 -6.5 -78.5t-14.5 -75.5l-84 -356q-17 -72 -17 -114q0 -30 10 -47t31 -26t69 -14zM980 1365l69 -48q-50 -75 -88.5 -116t-70.5 -57t-71 -16q-23 0 -42 6t-35.5 16t-49.5 38q-30 24 -43 33t-25 13.5t-25 4.5q-25 0 -45 -9.5t-44 -34.5 t-54 -67l-70 47q61 87 93 122t64.5 51.5t77.5 16.5q16 0 29.5 -3.5t26.5 -9.5t23 -13t39 -30q41 -34 60.5 -44.5t39.5 -10.5q23 0 43 10t44 34t54 67z"/>
<glyph glyph-name="ograve" horiz-adv-x="1038" unicode="ò" d="M258 277q0 -110 45.5 -162.5t137.5 -52.5q98 0 174 88t120 246.5t44 278.5q0 108 -42 162.5t-131 54.5q-104 0 -181.5 -87t-122 -249t-44.5 -279zM409 -17q-155 0 -240.5 87t-85.5 250q0 60 15 141q19 105 54 186q45 101 115.5 174.5t162 112t196.5 38.5q115 0 188.5 -44 t106.5 -119.5t33 -174.5q0 -89 -25 -190q-36 -148 -105 -251t-173 -156.5t-242 -53.5zM648 1442l133 -328l-71 -44l-235 322l11 50h162z"/>
<glyph glyph-name="oacute" horiz-adv-x="1038" unicode="ó" d="M258 277q0 -110 45.5 -162.5t137.5 -52.5q98 0 174 88t120 246.5t44 278.5q0 108 -42 162.5t-131 54.5q-104 0 -181.5 -87t-122 -249t-44.5 -279zM409 -17q-155 0 -240.5 87t-85.5 250q0 60 15 141q19 105 54 186q45 101 115.5 174.5t162 112t196.5 38.5q115 0 188.5 -44 t106.5 -119.5t33 -174.5q0 -89 -25 -190q-36 -148 -105 -251t-173 -156.5t-242 -53.5zM982 1442l-11 -50l-374 -322l-62 60l263 312h184z"/>
<glyph glyph-name="ocircumflex" horiz-adv-x="1038" unicode="ô" d="M258 277q0 -110 45.5 -162.5t137.5 -52.5q98 0 174 88t120 246.5t44 278.5q0 108 -42 162.5t-131 54.5q-104 0 -181.5 -87t-122 -249t-44.5 -279zM409 -17q-155 0 -240.5 87t-85.5 250q0 60 15 141q19 105 54 186q45 101 115.5 174.5t162 112t196.5 38.5q115 0 188.5 -44 t106.5 -119.5t33 -174.5q0 -89 -25 -190q-36 -148 -105 -251t-173 -156.5t-242 -53.5zM799 1432l132 -337l-79 -35l-138 243h-10l-256 -243l-62 57l277 315h136z"/>
<glyph glyph-name="otilde" horiz-adv-x="1038" unicode="õ" d="M258 277q0 -110 45.5 -162.5t137.5 -52.5q98 0 174 88t120 246.5t44 278.5q0 108 -42 162.5t-131 54.5q-104 0 -181.5 -87t-122 -249t-44.5 -279zM409 -17q-155 0 -240.5 87t-85.5 250q0 60 15 141q19 105 54 186q45 101 115.5 174.5t162 112t196.5 38.5q115 0 188.5 -44 t106.5 -119.5t33 -174.5q0 -89 -25 -190q-36 -148 -105 -251t-173 -156.5t-242 -53.5zM951 1365l69 -48q-50 -75 -88.5 -116t-70.5 -57t-71 -16q-23 0 -42 6t-35.5 16t-49.5 38q-30 24 -43 33t-25 13.5t-25 4.5q-25 0 -45 -9.5t-44 -34.5t-54 -67l-70 47q61 87 93 122 t64.5 51.5t77.5 16.5q16 0 29.5 -3.5t26.5 -9.5t23 -13t39 -30q41 -34 60.5 -44.5t39.5 -10.5q23 0 43 10t44 34t54 67z"/>
<glyph glyph-name="odieresis" horiz-adv-x="1038" unicode="ö" d="M258 277q0 -110 45.5 -162.5t137.5 -52.5q98 0 174 88t120 246.5t44 278.5q0 108 -42 162.5t-131 54.5q-104 0 -181.5 -87t-122 -249t-44.5 -279zM409 -17q-155 0 -240.5 87t-85.5 250q0 60 15 141q19 105 54 186q45 101 115.5 174.5t162 112t196.5 38.5q115 0 188.5 -44 t106.5 -119.5t33 -174.5q0 -89 -25 -190q-36 -148 -105 -251t-173 -156.5t-242 -53.5zM630 1339l-38 -176h-165l38 176h165zM952 1339l-38 -176h-165l38 176h165z"/>
<glyph glyph-name="divide" d="M489 349q44 0 73.5 -30.5t29.5 -77.5t-29.5 -77.5t-73.5 -30.5t-73.5 30.5t-29.5 77.5t29.5 77.5t73.5 30.5zM137 518l30 135h826l-30 -135h-826zM633 1036q44 0 73.5 -30.5t29.5 -77.5t-29.5 -77.5t-73.5 -30.5t-73.5 30.5t-29.5 77.5t29.5 77.5t73.5 30.5z" unicode="÷"/>
<glyph glyph-name="oslash" horiz-adv-x="1038" unicode="ø" d="M779 727l-483 -603q44 -62 145 -62q71 0 130.5 46t105.5 133t75.5 212.5t29.5 221.5q0 29 -3 52zM256 230l484 603q-41 59 -134 59q-105 0 -183.5 -87.5t-123 -249t-44.5 -278.5v-26q0 -12 1 -21zM145 97q-62 86 -62 223q0 60 15 141q19 105 54 186q45 101 115.5 174.5 t162 112t196.5 38.5q112 0 190 -45l134 165h129l-188 -232q63 -86 63 -226q0 -89 -25 -190q-36 -148 -105 -251t-173 -156.5t-242 -53.5q-111 0 -190 46l-133 -164h-129z"/>
<glyph glyph-name="ugrave" horiz-adv-x="1096" unicode="ù" d="M153 956h315l-127 -509q-14 -56 -24.5 -111.5t-10.5 -101.5q0 -71 24.5 -102t76.5 -31q43 0 93 33.5t106 104t88.5 133.5t50.5 150l91 434h173l-152 -683q-6 -27 -14 -71t-8 -72q0 -42 23.5 -59.5t87.5 -21.5l-11 -49h-286l64 251l-13 4q-97 -138 -187.5 -204.5 t-182.5 -66.5q-97 0 -147 53.5t-50 158.5q0 30 5.5 70.5t15.5 84.5l84 355q10 44 13.5 70t3.5 44q0 45 -24 63t-86 23zM627 1442l133 -328l-71 -44l-235 322l11 50h162z"/>
<glyph glyph-name="uacute" horiz-adv-x="1096" unicode="ú" d="M153 956h315l-127 -509q-14 -56 -24.5 -111.5t-10.5 -101.5q0 -71 24.5 -102t76.5 -31q43 0 93 33.5t106 104t88.5 133.5t50.5 150l91 434h173l-152 -683q-6 -27 -14 -71t-8 -72q0 -42 23.5 -59.5t87.5 -21.5l-11 -49h-286l64 251l-13 4q-97 -138 -187.5 -204.5 t-182.5 -66.5q-97 0 -147 53.5t-50 158.5q0 30 5.5 70.5t15.5 84.5l84 355q10 44 13.5 70t3.5 44q0 45 -24 63t-86 23zM1011 1442l-11 -50l-374 -322l-62 60l263 312h184z"/>
<glyph glyph-name="ucircumflex" horiz-adv-x="1096" unicode="û" d="M153 956h315l-127 -509q-14 -56 -24.5 -111.5t-10.5 -101.5q0 -71 24.5 -102t76.5 -31q43 0 93 33.5t106 104t88.5 133.5t50.5 150l91 434h173l-152 -683q-6 -27 -14 -71t-8 -72q0 -42 23.5 -59.5t87.5 -21.5l-11 -49h-286l64 251l-13 4q-97 -138 -187.5 -204.5 t-182.5 -66.5q-97 0 -147 53.5t-50 158.5q0 30 5.5 70.5t15.5 84.5l84 355q10 44 13.5 70t3.5 44q0 45 -24 63t-86 23zM828 1432l132 -337l-79 -35l-138 243h-10l-256 -243l-62 57l277 315h136z"/>
<glyph glyph-name="udieresis" horiz-adv-x="1096" unicode="ü" d="M153 956h315l-127 -509q-14 -56 -24.5 -111.5t-10.5 -101.5q0 -71 24.5 -102t76.5 -31q43 0 93 33.5t106 104t88.5 133.5t50.5 150l91 434h173l-152 -683q-6 -27 -14 -71t-8 -72q0 -42 23.5 -59.5t87.5 -21.5l-11 -49h-286l64 251l-13 4q-97 -138 -187.5 -204.5 t-182.5 -66.5q-97 0 -147 53.5t-50 158.5q0 30 5.5 70.5t15.5 84.5l84 355q10 44 13.5 70t3.5 44q0 45 -24 63t-86 23zM659 1339l-38 -176h-165l38 176h165zM981 1339l-38 -176h-165l38 176h165z"/>
<glyph glyph-name="yacute" horiz-adv-x="942" unicode="ý" d="M185 738q-10 76 -19 105.5t-29 45t-65 18.5l11 49h257l76 -795q338 462 338 662q0 47 -20 64t-68 20l10 49h258l27 -50q-53 -139 -135.5 -288t-202 -326t-265.5 -368q-112 -147 -188 -222q-59 -57 -108.5 -86.5t-96 -42t-98.5 -12.5q-27 0 -61 5.5t-58 14.5l43 187h78 q1 -34 16 -54t44 -20q32 0 55 6.5t48.5 21.5t62 48t82.5 87.5t103 131.5zM919 1442l-11 -50l-374 -322l-62 60l263 312h184z"/>
<glyph glyph-name="thorn" horiz-adv-x="1067" unicode="þ" d="M322 348q-10 -53 -12.5 -81t-2.5 -55q0 -78 33.5 -113.5t115.5 -35.5q51 0 94 20t81.5 58t69.5 92t55.5 125.5t37 147t12.5 141.5q0 105 -29.5 156.5t-93.5 51.5q-51 0 -100.5 -34.5t-108.5 -110.5t-92 -150t-52 -170zM202 -177q-10 -48 -12.5 -74t-2.5 -43q0 -30 10 -47 t31 -26t69 -14l-8 -49h-309l356 1573q6 25 14.5 72t8.5 76q0 42 -25.5 59t-91.5 19l12 52l253 9h58l-176 -700l13 -4q96 129 180.5 187.5t171.5 58.5q109 0 169.5 -83t60.5 -234q0 -108 -29.5 -217t-82 -197t-117 -144.5t-136 -84.5t-150.5 -28q-133 0 -221 58z"/>
<glyph glyph-name="Dcroat" horiz-adv-x="1330" unicode="Đ" d="M484 761h304l-20 -92h-304l-126 -577q29 -3 111 -3q101 0 183.5 22t152 70.5t126.5 129.5t92.5 164.5t55.5 179.5t20 203q0 209 -97.5 314.5t-289.5 105.5q-44 0 -95 -3zM122 761h185l68 307q10 45 16 88t6 73q0 47 -24 65.5t-74 21.5l11 49h379q151 0 245 -23t175.5 -83 t122.5 -159.5t41 -235.5q0 -135 -31 -258t-89 -226.5t-139 -180t-157 -117.5t-170 -61.5t-219 -20.5h-420l11 49q38 6 57 19.5t32 37.5t24 58.5t33 133.5l82 371h-185z"/>
<glyph glyph-name="dotlessi" horiz-adv-x="555" unicode="ı" d="M313 250q-11 -51 -14 -74.5t-3 -39.5q0 -30 10 -47t31 -26t69 -14l-9 -49h-310l151 674q13 58 18 92.5t5 57.5q0 29 -8.5 45t-28.5 24t-69 10l11 53l244 9h59z"/>
<glyph glyph-name="OE" horiz-adv-x="1836" unicode="Œ" d="M1019 987q0 161 -50.5 233.5t-156.5 72.5q-103 0 -193 -76t-159 -215.5t-108.5 -315t-39.5 -306.5q0 -114 23 -181.5t67.5 -97.5t116.5 -30q134 0 245.5 125.5t183 355.5t71.5 435zM1896 1365l-69 -307h-96q-3 72 -11 112.5t-18 60t-23 29t-32.5 13.5t-55.5 4h-311 l-113 -524h175q44 0 73.5 12t54.5 41.5t56 90.5h91l-90 -384h-85q0 55 -4 81t-10.5 38.5t-16.5 19.5t-26 10t-53 3h-184l-124 -577h276q44 0 74.5 6.5t55.5 22.5t48 41.5t47.5 65.5t66.5 122h97l-88 -346h-760l29 135l-9 -1q-64 -70 -158 -110t-187 -40q-194 0 -293 109.5 t-99 321.5q0 149 50.5 341t144.5 335t221.5 216.5t277.5 73.5q92 0 162.5 -33.5t124.5 -108.5h10l27 126h754z"/>
<glyph glyph-name="oe" horiz-adv-x="1581" unicode="œ" d="M258 277q0 -110 45.5 -162.5t137.5 -52.5q98 0 174 88t120 246.5t44 278.5q0 108 -42 162.5t-131 54.5q-104 0 -181.5 -87t-122 -249t-44.5 -279zM927 516q92 1 161.5 10.5t119.5 26t83 39.5t52.5 50.5t27 58t7.5 63.5q0 61 -28.5 95.5t-84.5 34.5q-70 0 -137.5 -50.5 t-119 -136t-81.5 -191.5zM1459 199q-74 -81 -142 -128t-136 -67t-150 -20q-66 0 -112.5 17.5t-79 49t-60.5 84.5h-10q-93 -82 -172 -117t-188 -35q-155 0 -240.5 87t-85.5 250q0 60 15 141q19 105 54 186q45 101 115.5 174.5t162 112t196.5 38.5q77 0 132 -22t90.5 -58 t62.5 -93h10q171 174 380 174q121 0 181.5 -49t60.5 -153q0 -170 -159.5 -255t-473.5 -85q-12 -60 -12 -130q0 -105 41 -152.5t134 -47.5q92 0 167 40t157 123z"/>
<glyph glyph-name="Scaron" horiz-adv-x="986" unicode="Š" d="M159 311q0 -121 56 -180.5t175 -59.5q92 0 158 34t100 96.5t34 148.5q0 61 -21.5 107.5t-65 89t-125.5 97.5q-74 50 -123 98.5t-78 108.5t-29 134q0 118 57 208t161 139t240 49q92 0 170.5 -12.5t173.5 -42.5l-56 -257h-96q-4 85 -26 133.5t-63 69.5t-109 21 q-83 0 -146 -34t-96 -92.5t-33 -130.5q0 -52 18 -93t57.5 -80.5t115.5 -91.5q98 -68 149.5 -121.5t76 -113.5t24.5 -139q0 -121 -58.5 -215.5t-165 -146t-242.5 -51.5q-93 0 -197.5 14t-191.5 38l60 275h96zM643 1468l-161 261l66 50l180 -182h10l263 183l52 -62l-274 -250 h-136z"/>
<glyph glyph-name="scaron" horiz-adv-x="782" unicode="š" d="M660 723q-11 90 -51.5 130.5t-125.5 40.5q-47 0 -85 -17.5t-60 -51t-22 -78.5q0 -37 15 -67.5t50.5 -63.5t99.5 -76q97 -65 136 -126t39 -141q0 -94 -45 -159.5t-123 -97.5t-176 -32q-88 0 -164.5 13t-148.5 33l47 216h78q7 -92 52.5 -137.5t132.5 -45.5q89 0 139 44.5 t50 117.5q0 43 -15 77t-47 65t-91 71q-63 43 -102 81t-60.5 83.5t-21.5 100.5q0 83 41 144t116.5 93t176.5 32q165 0 291 -43l-46 -206h-80zM454 1080l-132 335l78 37l138 -243h10l256 243l63 -57l-278 -315h-135z"/>
<glyph glyph-name="Ydieresis" horiz-adv-x="1122" unicode="Ÿ" d="M587 1365l-11 -49q-42 -4 -64 -24.5t-22 -63.5q0 -61 28 -160l106 -377l246 329q55 73 79.5 114.5t34.5 73.5q8 24 8 46q0 28 -19 43t-55 19l11 49h375l-11 -49q-24 -5 -41.5 -14.5t-40 -30.5t-61 -67.5t-98.5 -124.5l-389 -505l-62 -283q-9 -40 -12.5 -62.5t-6 -48 t-2.5 -45.5q0 -31 10 -48.5t30 -25.5t69 -12l-11 -49h-421l11 49q40 6 59 16t33.5 31t29 66t34.5 136l59 276l-145 505q-33 116 -52 157t-40.5 58t-56.5 22l11 49h387zM745 1691l-38 -176h-165l38 176h165zM1095 1691l-38 -176h-165l38 176h165z"/>
<glyph glyph-name="circumflex" horiz-adv-x="554" unicode="ˆ" d="M560 1432l132 -337l-79 -35l-138 243h-10l-256 -243l-62 57l277 315h136z"/>
<glyph glyph-name="caron" horiz-adv-x="554" unicode="ˇ" d="M335 1080l-132 335l78 37l138 -243h10l256 243l63 -57l-278 -315h-135z"/>
<glyph glyph-name="ring" horiz-adv-x="554" unicode="˚" d="M327 1225q0 -42 21.5 -67t67.5 -25q48 0 84 28.5t53.5 72.5t17.5 85q0 44 -23 67.5t-65 23.5q-43 0 -79 -25t-56.5 -68t-20.5 -92zM405 1071q-86 0 -132.5 38.5t-46.5 109.5q0 46 16.5 94t53.5 84.5t87.5 55.5t107.5 19q90 0 135.5 -38.5t45.5 -110.5q0 -66 -31 -126 t-92 -93t-144 -33z"/>
<glyph glyph-name="tilde" horiz-adv-x="554" unicode="˜" d="M708 1365l69 -48q-50 -75 -88.5 -116t-70.5 -57t-71 -16q-23 0 -42 6t-35.5 16t-49.5 38q-30 24 -43 33t-25 13.5t-25 4.5q-25 0 -45 -9.5t-44 -34.5t-54 -67l-70 47q61 87 93 122t64.5 51.5t77.5 16.5q16 0 29.5 -3.5t26.5 -9.5t23 -13t39 -30q41 -34 60.5 -44.5 t39.5 -10.5q23 0 43 10t44 34t54 67z"/>
<glyph glyph-name="Alpha" horiz-adv-x="1205" unicode="Α" d="M401 540h391l-17 322q-3 66 -5 165t-2 143h-11zM678 0l11 49q45 4 70.5 26t36 61t10.5 103q0 39 -3 85l-7 129h-440l-55 -98q-39 -69 -57 -118.5t-18 -87.5q0 -84 101 -100l-11 -49h-409l11 49q31 4 58.5 24.5t58.5 62t87 137.5l641 1108h151l72 -1115q5 -79 18 -123.5 t35.5 -66t65.5 -27.5l-11 -49h-416z"/>
<glyph glyph-name="Beta" horiz-adv-x="1221" unicode="Β" d="M333 92q78 -4 146 -4q151 0 233.5 38t133.5 124t51 206q0 65 -25.5 110t-81 72t-152.5 27h-181zM619 753q104 0 167.5 14t103.5 42t71.5 65.5t50 88.5t18.5 120q0 43 -15 80.5t-51.5 64t-84 38t-126.5 11.5q-87 0 -162 -3l-113 -521h141zM895 699q93 -37 143 -105.5 t50 -155.5q0 -103 -37.5 -184.5t-118.5 -142.5t-186 -86t-259 -25h-445l11 49q38 6 57 19.5t32 37.5t24 58.5t33 133.5l170 770q22 100 22 158q0 49 -23 68t-75 22l11 49h495q150 0 240.5 -31.5t133 -92.5t42.5 -153q0 -131 -80 -228.5t-238 -149.5z"/>
<glyph glyph-name="Gamma" horiz-adv-x="1073" unicode="Γ" d="M1122 1014h-96q0 182 -23.5 223t-107.5 41h-301l-217 -987q-23 -105 -23 -156q0 -42 20.5 -61.5t90.5 -24.5l-12 -49h-410l10 49q60 8 86 51.5t60 198.5l170 768q22 99 22 160q0 88 -98 90l10 49h897z"/>
<glyph glyph-name="Delta" horiz-adv-x="1171" unicode="Δ" d="M782 723q-22 307 -22 436h-12l-588 -1009h663zM999 0h-1050l12 63l793 1317h141l117 -1317z"/>
<glyph glyph-name="Epsilon" horiz-adv-x="1164" unicode="Ε" d="M1224 1365l-69 -307h-96q-3 72 -11 112.5t-18 60t-23 29t-32.5 13.5t-55.5 4h-326l-114 -524h191q44 0 73.5 12t54.5 41.5t56 90.5h91l-90 -384h-85q0 55 -4 81t-10.5 38.5t-16.5 19.5t-26 10t-53 3h-200l-128 -577h296q44 0 74.5 6.5t55.5 22.5t48 41.5t47.5 65.5 t66.5 122h97l-88 -346h-887l11 49q38 6 57 19.5t32 37.5t24 58.5t33 133.5l170 770q22 100 22 161q0 47 -24 65.5t-74 21.5l11 49h920z"/>
<glyph glyph-name="Zeta" horiz-adv-x="1049" unicode="Ζ" d="M237 92h320q44 0 72 6t50 18t41 30t38.5 43t43 67t51.5 106h96l-77 -362h-887l10 49l908 1224h-307q-42 0 -67 -4.5t-44 -14t-34 -22t-35.5 -37t-45 -63.5t-56.5 -105h-96l74 338h866l-11 -48z"/>
<glyph glyph-name="Eta" horiz-adv-x="1370" unicode="Η" d="M1091 291q-13 -59 -17 -93.5t-4 -62.5q0 -45 22.5 -63.5t75.5 -22.5l-11 -49h-400l11 49q38 6 57 19.5t32 37.5t24 58.5t33 133.5l82 371h-537l-83 -378q-8 -37 -12.5 -60.5t-6.5 -46t-2 -49.5q0 -43 20 -62t78 -24l-11 -49h-400l11 49q38 6 57 19.5t32 37.5t24 58.5 t33 133.5l170 770q9 41 15.5 87.5t6.5 73.5q0 47 -24 65.5t-74 21.5l11 49h400l-11 -49q-38 -8 -54.5 -18t-30 -30t-27 -62.5t-34.5 -138.5l-68 -306h537l68 307q9 41 15.5 87.5t6.5 73.5q0 47 -24 65.5t-74 21.5l11 49h400l-11 -49q-34 -8 -48 -15t-25.5 -19t-22 -34.5 t-22.5 -66t-28 -114.5z"/>
<glyph glyph-name="Theta" horiz-adv-x="1274" unicode="Θ" d="M854 541h-70q-1 90 -73 90h-78q-33 0 -56.5 -13t-56.5 -77h-71l65 299h72q2 -58 21.5 -75t62.5 -17h55q42 0 69 15.5t56 76.5h70zM825 1292q-154 0 -272 -150t-180 -377t-62 -384q0 -309 226 -309q216 0 364 293t148 622q0 305 -224 305zM532 -16q-199 0 -303 110.5 t-104 321.5q0 200 83.5 442.5t248 382t381.5 139.5q194 0 297.5 -112t103.5 -324q0 -209 -86 -448t-250.5 -375.5t-370.5 -136.5z"/>
<glyph glyph-name="Iota" horiz-adv-x="656" unicode="Ι" d="M376 291q-13 -59 -17 -93.5t-4 -62.5q0 -45 22.5 -63.5t75.5 -22.5l-11 -49h-400l11 49q38 6 57 19.5t32 37.5t24 58.5t33 133.5l170 770q10 46 16 88.5t6 72.5q0 47 -24 65.5t-74 21.5l11 49h400l-11 -49q-38 -8 -54.5 -18t-30 -30t-27 -62.5t-34.5 -138.5z"/>
<glyph glyph-name="Kappa" horiz-adv-x="1235" unicode="Κ" d="M476 748h33q42 0 76.5 14t80.5 51t146.5 136t143 150.5t62 89t19.5 68.5q0 25 -20 40.5t-57 18.5l11 49h429l-11 -49q-40 -6 -90.5 -41.5t-154.5 -138.5l-388 -378l213 -512q27 -65 43.5 -95.5t35.5 -51t43 -33t58 -17.5l-11 -49h-386l11 49q54 5 54 48q0 13 -2.5 27 t-11 41t-23.5 65l-130 318q-23 57 -40 80t-36 32t-59 9h-56l-83 -378q-13 -60 -17 -94.5t-4 -61.5q0 -45 22.5 -63.5t75.5 -22.5l-11 -49h-400l11 49q38 6 57 19.5t32 37.5t24 58.5t33 133.5l170 770q10 46 16 88.5t6 72.5q0 47 -24 65.5t-74 21.5l11 49h400l-11 -49 q-38 -8 -54.5 -18t-30 -30t-27 -62.5t-34.5 -138.5z"/>
<glyph glyph-name="Lambda" horiz-adv-x="1205" unicode="Λ" d="M1095 0h-416l12 49q56 7 85.5 42.5t29.5 144.5v42q0 23 -2 48l-29 542q-6 112 -6 210v93h-10l-457 -815q-73 -130 -73 -206q0 -85 100 -101l-12 -49h-410l12 49q39 4 80.5 43t124.5 182l639 1108h152l71 -1116q6 -101 29 -155t90 -62z"/>
<glyph glyph-name="Mu" horiz-adv-x="1622" unicode="Μ" d="M1356 1365h315l-11 -49q-38 -8 -54.5 -18t-30 -30t-27 -62.5t-34.5 -138.5l-171 -776q-13 -59 -17 -93.5t-4 -62.5q0 -45 22.5 -63.5t75.5 -22.5l-11 -49h-400l11 49q38 6 57 19.5t32 37.5t24 58.5t33 133.5l133 603q26 119 66 255h-14q-29 -54 -57.5 -103.5 t-84.5 -142.5l-455 -751h-109l-96 750l-27 269h-20q-38 -251 -76 -425l-96 -436q-17 -76 -22 -113t-5 -69q0 -45 22.5 -63.5t75.5 -22.5l-11 -49h-350l11 49q38 6 57 19.5t32 37.5t24 58.5t33 133.5l170 770q10 43 16 82t6 79q0 47 -24 65.5t-74 21.5l11 49h357l114 -970z "/>
<glyph glyph-name="Nu" horiz-adv-x="1374" unicode="Ν" d="M1428 1365l-11 -49q-38 -8 -54.5 -18t-30 -30t-27 -62.5t-34.5 -138.5l-235 -1067h-136l-292 858q-53 154 -93 307h-13q-6 -51 -33 -194.5t-57 -280.5l-88 -399q-9 -42 -15 -81t-6 -75q0 -45 22.5 -63.5t75.5 -22.5l-11 -49h-350l11 49q38 6 57 19.5t32 37.5t24 58.5 t33 133.5l170 770q10 43 16 82t6 79q0 47 -24 65.5t-74 21.5l11 49h319l264 -779q57 -168 88 -284h11q8 61 36.5 203t52.5 248l70 315q7 33 14.5 78t7.5 83q0 47 -24 65.5t-74 21.5l11 49h350z"/>
<glyph glyph-name="Xi" horiz-adv-x="1112" unicode="Ξ" d="M887 0h-864l59 356h94q0 -142 28.5 -174t131.5 -32h285q121 0 164 32.5t94 161.5h96zM834 532h-89q0 71 -19.5 92t-86.5 21h-96q-66 0 -93.5 -17t-62.5 -91h-88l76 352h88q0 -79 21.5 -98t84.5 -19h97q80 0 105.5 24.5t51.5 86.5h86zM1108 1044h-96q-4 125 -29.5 149 t-114.5 24h-317q-90 0 -122 -23t-85 -133h-94l67 305h861z"/>
<glyph glyph-name="Omicron" horiz-adv-x="1273" unicode="Ο" d="M1049 987q0 306 -223 306q-54 0 -102 -18q-56 -22 -107 -65q-57 -49 -106 -125q-58 -90 -101 -205q-45 -120 -72 -259q-26 -133 -26 -241q0 -156 56.5 -232.5t168.5 -76.5q90 0 171 55q100 67 180 213q86 157 133 383q28 133 28 265zM837 1381q124 0 214.5 -48t139 -146 t48.5 -242q0 -155 -53 -348.5t-153.5 -335t-229.5 -210t-270 -68.5q-140 0 -231.5 54t-134.5 150.5t-43 227.5q0 127 36.5 284.5t100 284.5t151 216t195.5 135t230 46z"/>
<glyph glyph-name="Pi" horiz-adv-x="1350" unicode="Π" d="M1389 1317q-59 -10 -84.5 -46t-63.5 -204l-170 -776q-22 -100 -22 -156q0 -82 98 -86l-10 -49h-400l11 49q64 9 88.5 57t56.5 193l215 967h-516l-215 -975q-23 -104 -23 -156q0 -46 22 -64t77 -22l-11 -49h-399l10 49q60 8 86 51.5t60 198.5l170 768q22 99 22 162 q0 85 -98 88l10 49h1096z"/>
<glyph glyph-name="Rho" horiz-adv-x="1137" unicode="Ρ" d="M561 668q121 0 195.5 25t122 77.5t73.5 124.5t26 158q0 85 -30 134t-85 69.5t-140 20.5q-62 0 -130 -3l-136 -606h104zM745 1365q119 0 195.5 -18.5t126 -57t74 -97.5t24.5 -137q0 -150 -71 -260t-192.5 -162t-291.5 -52q-102 0 -170 4l-64 -294q-9 -41 -12.5 -63 t-6 -47.5t-2.5 -45.5q0 -31 10 -48.5t30 -25.5t69 -12l-11 -49h-411l11 49q38 6 57 19.5t32 37.5t24 58.5t33 133.5l170 770q22 100 22 158q0 49 -23 68t-75 22l11 49h441z"/>
<glyph glyph-name="Sigma" horiz-adv-x="1077" unicode="Σ" d="M1063 1022h-98q0 111 -10.5 163t-33.5 72.5t-96 20.5h-356l221 -498l-14 -57l-492 -573h394q77 0 111 11.5t70.5 57t86.5 156.5h96l-94 -375h-907l10 49l575 670l-276 598l10 49h879z"/>
<glyph glyph-name="Tau" horiz-adv-x="1175" unicode="Τ" d="M712 0h-421l11 49q39 5 58 15.5t33.5 31.5t29.5 65.5t35 136.5l214 979h-127q-62 0 -99 -18t-74 -67t-90 -164h-96l75 337h1044l-78 -352h-96q0 97 -5 145.5t-19 74t-34.5 35t-72.5 9.5h-148l-217 -986q-9 -39 -12.5 -62t-6 -48.5t-2.5 -45.5q0 -31 10 -48.5t30 -25.5 t69 -12z"/>
<glyph glyph-name="Upsilon" horiz-adv-x="1145" unicode="Υ" d="M1296 1176h-86q-13 51 -57 51q-98 0 -284 -336t-224 -504l-20 -96q-21 -101 -21 -156q0 -44 20.5 -63t88.5 -23l-13 -49h-419l10 49q77 6 101 61.5t54 188.5l21 88q23 96 23 179v18q0 142 -35.5 358.5t-67 276t-76.5 59.5q-47 0 -112 -31l-29 62q137 71 221 71 q98 0 144.5 -72.5t68.5 -240.5t25 -268l1 -21v-12q0 -29 -3 -102h14q100 215 160.5 331.5t142 219.5t138 135t135.5 32q63 0 114 -22z"/>
<glyph glyph-name="Phi" horiz-adv-x="1481" unicode="Φ" d="M780 1049q-213 0 -343 -129.5t-130 -335.5q0 -116 79.5 -184.5t234.5 -73.5zM956 1055l-159 -725q218 5 344.5 135t126.5 323q0 254 -312 267zM776 240q-8 -45 -8 -105q0 -81 96 -86l-10 -49h-397l12 49q56 9 80 43.5t51 145.5q-228 9 -349.5 103t-121.5 251 q0 256 183 402.5t487 146.5q8 65 8 88q0 86 -98 88l10 49h397l-10 -49q-62 -10 -84.5 -46t-44.5 -128q227 -10 348 -104t121 -244q0 -260 -174.5 -404.5t-495.5 -150.5z"/>
<glyph glyph-name="Chi" horiz-adv-x="1116" unicode="Χ" d="M640 1365l-11 -49q-43 -7 -68.5 -29.5t-25.5 -65.5q0 -64 33 -161l83 -242l214 271q15 19 29.5 39.5t26 40t17 33.5t8 25t2.5 21q0 27 -16 46t-55 22l11 49h373l-11 -49q-30 -9 -56.5 -29t-63 -60t-135.5 -158l-298 -356l146 -406q33 -92 53 -139q22 -50 38 -73 q13 -17 27 -27q14 -9 47 -19l-10 -49h-404l10 49q46 7 70.5 31.5t24.5 63.5q0 59 -24 131l-104 305l-228 -285q-51 -64 -74 -104.5t-23 -69.5q0 -24 6.5 -38t22 -22.5t42.5 -11.5l-11 -49h-372l10 49q20 7 35.5 15.5t34 24t50 50.5t71.5 82l390 464l-148 411q-22 61 -39 102 t-33.5 65t-34.5 36t-45 17l11 49h404z"/>
<glyph glyph-name="Psi" horiz-adv-x="1509" unicode="Ψ" d="M1636 1317q-59 -14 -82.5 -57t-46.5 -146l-34 -153q-61 -276 -205.5 -364.5t-417.5 -94.5l-45 -211q-23 -108 -23 -156q0 -81 99 -86l-11 -49h-401l12 49q60 8 86 51.5t60 198.5l45 203q-443 16 -443 297q0 74 23 174l22 104q23 109 23 152q0 80 -86 88l10 49h293 l-84 -385q-24 -110 -24 -184q0 -108 68.5 -153t217.5 -48l105 471q22 99 22 162q0 85 -98 88l10 49h402l-13 -49q-61 -12 -84.5 -50.5t-60.5 -199.5l-105 -471q190 6 286 90t149 318l79 362h263z"/>
<glyph glyph-name="alpha" horiz-adv-x="1143" unicode="α" d="M727 485q12 142 12 203q0 112 -29.5 158.5t-97.5 46.5q-147 0 -249.5 -186t-102.5 -426q0 -76 31.5 -127.5t83.5 -51.5q188 0 352 383zM1188 926q-186 -227 -318 -434q-16 -158 -16 -245q0 -86 18 -121.5t60 -35.5q47 0 115 60l32 -50q-128 -116 -245 -116 q-142 0 -142 211q0 35 4 77h-4q-200 -288 -395 -288q-99 0 -156 86t-57 219q0 259 153.5 471.5t383.5 212.5q215 0 243 -275h4l131 256h170z"/>
<glyph glyph-name="beta" horiz-adv-x="1079" unicode="β" d="M555 715l18 71q135 0 245 113t110 289q0 76 -39.5 123t-110.5 47q-126 0 -208 -125t-136 -375l-135 -627q-4 -19 -4 -33q0 -50 58 -92.5t132 -42.5q128 0 220 115.5t92 280.5q0 254 -242 256zM735 766l-2 -8q240 -55 240 -287q0 -210 -135 -348.5t-324 -138.5 q-159 0 -250 90l-115 -506h-163l286 1304q64 290 187.5 427t328.5 137q143 0 228.5 -71.5t85.5 -197.5q0 -275 -367 -401z"/>
<glyph glyph-name="gamma" horiz-adv-x="979" unicode="γ" d="M1061 911q-364 -437 -635 -901q-6 -52 -20 -114q-15 -63 -27 -123q-13 -63 -41 -174h-141l-29 49l8 28q44 152 125 306q20 253 20 427q0 457 -137 457q-45 0 -96 -43l-39 43q117 107 227 107q206 0 206 -425q0 -146 -27 -337h6q289 488 407 745h174z"/>
<glyph glyph-name="delta" horiz-adv-x="1024" unicode="δ" d="M602 870q-158 -52 -250 -200.5t-92 -352.5q0 -110 53.5 -183t143.5 -73q130 0 216.5 135t86.5 300q0 192 -158 374zM1051 1178h-93q-39 178 -258 178q-73 0 -119 -34.5t-46 -84.5q0 -53 34 -103t176 -204q114 -124 154.5 -220.5t40.5 -217.5q0 -186 -135 -347t-367 -161 q-167 0 -260.5 105.5t-93.5 254.5q0 211 125 368t346 222q-68 74 -110 140t-42 138q0 99 82.5 161.5t219.5 62.5q236 0 374 -113z"/>
<glyph glyph-name="epsilon" horiz-adv-x="887" unicode="ε" d="M829 743h-84q-15 150 -186 150q-84 0 -144.5 -49t-60.5 -125q0 -72 53 -114t152 -42h88l-20 -96h-80q-126 0 -220 -57.5t-94 -161.5q0 -72 58 -114t145 -42q151 0 301 98l45 -67q-183 -139 -413 -139q-150 0 -235 65t-85 168q0 209 297 291l2 10q-166 48 -166 191 q0 122 98.5 193t274.5 71q165 0 313 -55z"/>
<glyph glyph-name="zeta" horiz-adv-x="854" unicode="ζ" d="M954 1337q-680 -595 -680 -948q0 -80 48 -128.5t155 -94.5q121 -52 169 -107.5t48 -138.5q0 -100 -85.5 -191.5t-233.5 -138.5l-37 60q116 40 179 100t63 121q0 54 -40 85.5t-173 82.5q-153 62 -215 136.5t-62 189.5q0 401 658 884l2 11h-408l27 126h594z"/>
<glyph glyph-name="eta" horiz-adv-x="1094" unicode="η" d="M725 -432h-164l219 993q23 104 23 168q0 125 -105 125q-83 0 -190.5 -128t-132.5 -241l-111 -485h-164l160 729q12 55 12 90q0 58 -43 58q-45 0 -98 -66l-31 49q74 77 114.5 95t92.5 18q113 0 113 -129q0 -52 -25 -137l13 -7q194 273 374 273q193 0 193 -211 q0 -69 -23 -166z"/>
<glyph glyph-name="theta" horiz-adv-x="1112" unicode="θ" d="M344 678q-53 -225 -53 -379q0 -231 174 -231q124 0 226.5 161t170.5 449h-518zM369 772h514q39 212 39 326q0 227 -154 227q-117 0 -221 -144t-178 -409zM446 -16q-321 0 -321 403q0 348 187.5 685t475.5 337q302 0 302 -395q0 -350 -183 -690t-461 -340z"/>
<glyph glyph-name="iota" horiz-adv-x="588" unicode="ι" d="M532 100q-140 -116 -253 -116q-163 0 -163 164q0 37 11 90l160 720h166l-160 -727q-6 -27 -6 -53q0 -90 80 -90q56 0 129 66z"/>
<glyph glyph-name="kappa" horiz-adv-x="1010" unicode="κ" d="M993 768h-78q-4 45 -41 45q-30 0 -80 -37.5t-188 -177.5l135 -412q31 -96 97 -96q49 0 106 47l25 -59q-124 -92 -224 -92q-62 0 -97.5 34.5t-67.5 129.5l-111 346q-124 -97 -141 -103l-88 -393h-164l157 702q18 80 18 119q0 47 -24.5 64.5t-81.5 17.5l11 53l239 11h60 l-103 -471q130 86 305 274q120 125 177.5 164t126.5 39q44 0 71 -15z"/>
<glyph glyph-name="lambda" horiz-adv-x="961" unicode="λ" d="M938 104q-88 -120 -184 -120q-54 0 -88.5 37t-53 109t-25.5 172l-30 435h-6q-60 -114 -210 -387q-139 -251 -187 -350h-205l10 49l39 40q51 51 115 157l426 700q-19 209 -59.5 285t-127.5 76q-82 0 -151 -70l-37 49q128 150 248 150q104 0 159 -81t68 -272 q28 -387 55 -611t57 -293.5t74 -69.5q42 0 74 45z"/>
<glyph glyph-name="mu" horiz-adv-x="1110" unicode="μ" d="M1030 78q-112 -94 -223 -94q-110 0 -110 136q0 53 18 128l-13 6q-181 -270 -342 -270q-100 0 -137 98h-8q-26 -157 -26 -329v-21q0 -11 1 -21l-10 -55l-100 -57h-90l301 1357h168l-115 -510q-35 -155 -35 -210q0 -134 94 -134q100 0 209 142t133 260l101 452h166 l-158 -714q-9 -41 -9 -69q0 -89 62 -89q39 0 97 47z"/>
<glyph glyph-name="nu" horiz-adv-x="977" unicode="ν" d="M971 956q-1 -159 -95 -359.5t-454 -604.5h-127q-5 150 -34 448t-42 345.5t-32.5 63t-43.5 15.5q-12 0 -63 -34q-11 -8 -19 -13l-24 57q102 99 215 99q60 0 100.5 -62t63.5 -293t23 -422v-30q0 -14 -1 -27q342 385 342 680v35q0 15 -6 51l12 51h185z"/>
<glyph glyph-name="xi" horiz-adv-x="877" unicode="ξ" d="M985 1284l-45 -4q-171 -15 -320 -106.5t-149 -219.5q0 -68 57 -104.5t141 -36.5q33 0 66 6l78 15l-18 -97l-62 -12q-194 -37 -329.5 -126t-135.5 -212q0 -70 42 -119t161 -102q121 -52 169 -107.5t48 -138.5q0 -100 -85.5 -191.5t-233.5 -138.5l-37 60q108 37 174.5 97 t66.5 122q0 56 -40.5 88t-184.5 88q-264 103 -264 307q0 142 123 249.5t315 150.5v8q-106 9 -169.5 62t-63.5 136q0 210 395 318v4h-42q-228 0 -280 131l152 25q34 -82 227 -82q71 0 133 11q61 10 132 19z"/>
<glyph glyph-name="omicron" horiz-adv-x="1038" unicode="ο" d="M258 277q0 -110 45.5 -162.5t137.5 -52.5q98 0 174 88t120 246.5t44 278.5q0 108 -42 162.5t-131 54.5q-104 0 -181.5 -87t-122 -249t-44.5 -279zM409 -17q-155 0 -240.5 87t-85.5 250q0 60 15 141q19 105 54 186q45 101 115.5 174.5t162 112t196.5 38.5q115 0 188.5 -44 t106.5 -119.5t33 -174.5q0 -89 -25 -190q-36 -148 -105 -251t-173 -156.5t-242 -53.5z"/>
<glyph glyph-name="pi" horiz-adv-x="1194" unicode="π" d="M1194 831h-229l-140 -616q-7 -31 -7 -54q0 -71 59 -71q45 0 118 74l37 -51q-119 -129 -235 -129q-142 0 -142 152q0 48 13 102l133 593h-291l-186 -831h-203l10 49q85 81 182 492l68 290h-12q-179 0 -273 -124l-47 53q141 196 361 196h811z"/>
<glyph glyph-name="rho" horiz-adv-x="1077" unicode="ρ" d="M315 418l-41 -187q-3 -15 -3 -29q0 -52 58 -95.5t130 -43.5q143 0 250.5 191t107.5 414q0 225 -170 225q-229 0 -332 -475zM240 72l-113 -504h-164l201 905q111 500 514 500q148 0 231.5 -85.5t83.5 -242.5q0 -233 -150.5 -447t-391.5 -214q-121 0 -211 88z"/>
<glyph glyph-name="sigma1" horiz-adv-x="861" unicode="ς" d="M821 717h-100v21q0 157 -115 157q-143 0 -243.5 -155t-100.5 -298q0 -95 37.5 -162.5t175.5 -129.5q184 -83 184 -220q0 -235 -319 -344l-37 60q242 93 242 227q0 48 -35 77.5t-145 74.5q-275 111 -275 381q0 228 153.5 397.5t381.5 169.5q150 0 245 -33z"/>
<glyph glyph-name="sigma" horiz-adv-x="1135" unicode="σ" d="M684 817q-127 0 -210 -49.5t-149.5 -168.5t-66.5 -304q0 -111 51 -171.5t127 -60.5q138 0 234 155.5t96 346.5q0 148 -82 252zM1104 821h-295l-2 -8q137 -98 137 -282q0 -206 -141 -376.5t-387 -170.5q-152 0 -242 97t-90 259q0 165 65 294.5t170 204.5t219.5 96 t313.5 21h279z"/>
<glyph glyph-name="tau" horiz-adv-x="980" unicode="τ" d="M960 831h-353l-125 -573q-12 -55 -12 -80q0 -88 86 -88q75 0 156 57l33 -57q-130 -106 -263 -106q-180 0 -180 163q0 53 13 99l129 585h-64q-137 0 -258 -124l-51 53q149 196 356 196h559z"/>
<glyph glyph-name="upsilon" horiz-adv-x="1073" unicode="υ" d="M111 813l-27 57q118 103 225 103q121 0 121 -137q0 -62 -20 -152l-62 -319q-16 -82 -16 -115q0 -70 37 -115t102 -45q151 0 242.5 171t91.5 427q0 139 -49 215l10 53h182q19 -70 19 -163q0 -339 -147.5 -574t-385.5 -235q-270 0 -270 268q0 38 20 131l60 301 q18 90 18 123q0 59 -51 59q-34 0 -100 -53z"/>
<glyph glyph-name="phi" horiz-adv-x="1389" unicode="φ" d="M674 63q216 27 344.5 188.5t128.5 405.5q0 106 -41.5 169t-114.5 63q-82 0 -127 -84.5t-108 -370.5zM657 -12l-94 -420h-157l94 420q-200 12 -308 105t-108 257q0 357 459 623l41 -70q-328 -227 -328 -538q0 -116 72.5 -199t189.5 -96l96 440q54 247 145.5 355t250.5 108 q147 0 228 -89t81 -237q0 -295 -182.5 -473t-479.5 -186z"/>
<glyph glyph-name="chi" horiz-adv-x="958" unicode="χ" d="M1014 909q-95 -92 -219 -252l-293 -374q32 -333 71.5 -444t108.5 -111q33 0 74 45l39 -47q-93 -121 -191 -121q-74 0 -125 86t-71 475l-218 -287q-35 -46 -122 -196l-37 -62h-199l10 49q69 64 201 238l346 450q-29 243 -67 366.5t-111 123.5q-47 0 -76 -25l-31 56 q86 94 181 94q165 0 188 -343q4 -68 12 -153l185 242q61 80 155 237h199z"/>
<glyph glyph-name="psi" horiz-adv-x="1386" unicode="ψ" d="M678 -16l-92 -416h-158l92 416q-181 0 -264.5 83t-83.5 209q0 79 45 274t45 257q0 59 -51 59q-36 0 -102 -53l-25 57q119 103 223 103q123 0 123 -137q0 -68 -46 -287q-46 -218 -46 -283q0 -182 201 -200l292 1320h158l-293 -1323q206 0 314 183.5t108 427.5 q0 152 -51 229l10 53h183q20 -78 20 -163q0 -386 -151 -597.5t-451 -211.5z"/>
<glyph glyph-name="endash" horiz-adv-x="1024" unicode="–" d="M930 460h-844l29 132h844z"/>
<glyph glyph-name="emdash" horiz-adv-x="2048" unicode="—" d="M1954 460h-1868l29 132h1868z"/>
<glyph glyph-name="quoteleft" horiz-adv-x="437" unicode="‘" d="M229 959q0 79 9 126q9 50 32 101q17 42 49 85t81 87t121 91l46 -62q-44 -36 -75 -81.5t-53.5 -112t-31.5 -135.5t-9 -99h-169z"/>
<glyph glyph-name="quotesinglbase" horiz-adv-x="408" unicode="‚" d="M255 222q0 -96 -15 -153q-18 -68 -47 -117q-33 -55 -88 -109t-142 -111l-46 62q45 36 76 82t53 112t31 135t9 99h169z"/>
<glyph glyph-name="quotedblleft" horiz-adv-x="751" unicode="“" d="M229 968q0 100 15.5 161.5t46 112.5t82.5 102.5t131 104.5l44 -58q-46 -41 -75 -84t-51 -106.5t-31 -133t-9 -99.5h-153zM562 968q0 100 15.5 161.5t46 112.5t82.5 102.5t131 104.5l44 -58q-46 -41 -75 -84t-51 -106.5t-31 -133t-9 -99.5h-153z"/>
<glyph glyph-name="quotedblright" horiz-adv-x="751" unicode="”" d="M838 1431q0 -101 -16 -162.5t-47 -113t-83 -102.5t-129 -103l-44 58q44 39 74 83t51.5 107t31 132.5t9.5 100.5h153zM505 1431q0 -101 -16 -162.5t-47 -113t-83 -102.5t-129 -103l-44 58q44 39 74 83t51.5 107t31 132.5t9.5 100.5h153z"/>
<glyph glyph-name="dagger" horiz-adv-x="1011" unicode="†" d="M510 802l-299 -56h-47l39 185h47l289 -56l50 457l10 49h204l-10 -49l-148 -457l313 56h48l-39 -185h-48l-275 56l-238 -1108h-134z"/>
<glyph glyph-name="daggerdbl" horiz-adv-x="1011" unicode="‡" d="M401 294l109 508l-299 -56h-47l39 185h47l289 -56l50 457l10 49h204l-10 -49l-148 -457l313 56h48l-39 -185h-48l-275 56l-109 -508l299 56h48l-40 -185h-48l-289 56l-49 -457l-11 -49h-204l11 49l147 457l-313 -56h-47l40 185h47z"/>
<glyph glyph-name="ellipsis" horiz-adv-x="1472" unicode="…" d="M1309 232l-49 -232h-191l49 232h191zM846 232l-49 -232h-191l49 232h191zM383 232l-49 -232h-191l49 232h191z"/>
<glyph glyph-name="perthousand" horiz-adv-x="2502" unicode="‰" d="M317 714q0 -68 23 -96.5t74 -28.5q47 0 89 34q60 48 104.5 147.5t73.5 247.5q18 91 18 169q0 62 -22.5 92t-70.5 30q-50 0 -95 -36q-58 -47 -103.5 -149t-74.5 -252q-16 -84 -16 -158zM408 517q-112 0 -167 62.5t-55 186.5q0 79 14 154.5t39.5 143.5t65 128t88 102.5 t103 64.5t112.5 22q222 0 222 -249q0 -72 -9 -128q-17 -106 -59.5 -203.5t-104.5 -165.5q-51 -56 -114 -87t-135 -31zM1570 1365l-1140 -1461h-151l1143 1461h148zM1127 85q0 -68 23 -96.5t74 -28.5q47 0 89 34q60 48 104.5 147.5t73.5 247.5q18 91 18 169q0 62 -22.5 92 t-70.5 30q-50 0 -95 -36q-58 -47 -103.5 -149t-74.5 -252q-16 -84 -16 -158zM1218 -112q-112 0 -167 62.5t-55 186.5q0 79 14 154.5t39.5 143.5t65 128t88 102.5t103 64.5t112.5 22q222 0 222 -249q0 -72 -9 -128q-17 -106 -59.5 -203.5t-104.5 -165.5q-51 -56 -114 -87 t-135 -31zM1872 85q0 -68 23 -96.5t74 -28.5q47 0 89 34q60 48 104.5 147.5t73.5 247.5q18 91 18 169q0 62 -22.5 92t-70.5 30q-50 0 -95 -36q-58 -47 -103.5 -149t-74.5 -252q-16 -84 -16 -158zM1963 -112q-112 0 -167 62.5t-55 186.5q0 79 14 154.5t39.5 143.5t65 128 t88 102.5t103 64.5t112.5 22q222 0 222 -249q0 -72 -9 -128q-17 -106 -59.5 -203.5t-104.5 -165.5q-51 -56 -114 -87t-135 -31z"/>
<glyph glyph-name="guilsinglleft" horiz-adv-x="593" unicode="‹" d="M418 100l-74 -37l-246 402l16 74l415 383l57 -58l-314 -381z"/>
<glyph glyph-name="guilsinglright" horiz-adv-x="593" unicode="›" d="M181 882l74 37l246 -402l-16 -74l-415 -383l-57 58l314 381z"/>
<glyph glyph-name="fraction" horiz-adv-x="221" unicode="⁄" d="M791 1365l-1140 -1461h-151l1143 1461h148z"/>
<glyph glyph-name="uni2070" horiz-adv-x="808" unicode="⁰" d="M382 1010q0 -68 23 -96.5t74 -28.5q47 0 89 34q60 48 104.5 147.5t73.5 247.5q18 91 18 169q0 62 -22.5 92t-70.5 30q-50 0 -95 -36q-58 -47 -103.5 -149t-74.5 -252q-16 -84 -16 -158zM473 813q-112 0 -167 62.5t-55 186.5q0 79 14 154.5t39.5 143.5t65 128t88 102.5 t103 64.5t112.5 22q222 0 222 -249q0 -72 -9 -128q-17 -106 -59.5 -203.5t-104.5 -165.5q-51 -56 -114 -87t-135 -31z"/>
<glyph glyph-name="uni2074" horiz-adv-x="808" unicode="⁴" d="M346 1156v-7h243l32 147q23 108 53 212h-10zM459 874q34 3 50.5 15.5t27 39.5t21.5 81l14 63h-371l13 67l497 528h122l-116 -519h18q32 0 50 5t31 19t25 46h75l-42 -146h-173l-15 -72q-6 -27 -8.5 -45t-2.5 -35q0 -23 17.5 -33.5t54.5 -13.5l-9 -45h-289z"/>
<glyph glyph-name="Euro" horiz-adv-x="1238" unicode="€" d="M447 526q-9 -74 -9 -138q0 -163 53.5 -239.5t167.5 -76.5q74 0 127.5 17.5t98.5 58t89 112.5h96l-48 -224q-104 -29 -196 -40.5t-191 -11.5q-121 0 -207 51.5t-130 149t-44 234.5q0 62 5 107h-214l21 96h208q5 26 18 81.5t26 92.5h-147l21 96h160q58 144 147.5 254 t208.5 172.5t259 62.5q89 0 164.5 -11t171.5 -40l-49 -221h-96q-10 92 -60.5 137t-145.5 45q-125 0 -232.5 -113t-175.5 -286h565l-21 -96h-579q-30 -99 -45 -174h519l-21 -96h-515z"/>
<glyph glyph-name="trademark" horiz-adv-x="1324" unicode="™" d="M1402 1365l-124 -582h-109l66 310q15 69 35 138h-13l-246 -389h-93l-64 398h-15q-8 -62 -24 -137l-68 -320h-94l125 582h154l61 -400l249 400h160zM231 1365h465l-19 -86h-177l-108 -496h-111l108 496h-177z"/>
<glyph glyph-name="partialdiff" horiz-adv-x="1116" unicode="∂" d="M806 683q0 102 -41.5 148t-126.5 46q-61 0 -116.5 -31.5t-99.5 -90.5t-73.5 -137t-46 -158.5t-16.5 -167.5q0 -90 19.5 -140.5t51.5 -69.5t80 -19q108 0 184.5 86.5t130.5 260t54 273.5zM854 875l2 25q3 48 3 83q0 82 -10 148t-33.5 113.5t-63 73t-99.5 25.5 q-73 0 -135.5 -34.5t-122.5 -106.5h-72v83q95 67 147.5 95.5t105 42.5t114.5 14q167 0 250 -113.5t83 -343.5q0 -91 -16 -216.5t-54 -261.5t-88 -231t-111 -157t-140.5 -96t-179.5 -34q-101 0 -175.5 42t-112 120.5t-37.5 191.5q0 112 35 222.5t102.5 201t161 142.5 t200.5 52q72 0 126 -16.5t120 -64.5z"/>
<glyph glyph-name="product" horiz-adv-x="1916" unicode="∏" d="M1700 1431v-49q-61 -17 -86 -31t-40.5 -36.5t-22 -65.5t-6.5 -139v-1219q0 -90 6 -133.5t20 -67t39.5 -39t89.5 -32.5v-49h-530v49q54 15 77.5 26.5t36.5 26t22 38t13 63t4 118.5v1434h-730v-1434q0 -97 6.5 -139t21.5 -64.5t41 -37.5t87 -31v-49h-531v49q60 16 86 30.5 t40.5 38t21 66.5t6.5 137v1219q0 94 -6.5 137t-20.5 65.5t-39.5 37.5t-87.5 32v49h1482z"/>
<glyph glyph-name="summation" horiz-adv-x="1685" unicode="∑" d="M509 1327l487 -739v-76l-546 -750h658q62 0 93.5 8t54 24.5t41 46t35.5 81.5t32 136h117l-29 -488h-1268v56l618 849l-580 899v57h1235v-445h-108q-25 95 -47.5 155t-46 95t-48 53.5t-56.5 28t-85 9.5h-557z"/>
<glyph glyph-name="minus" d="M137 518l30 135h826l-30 -135h-826z" unicode="−"/>
<glyph glyph-name="radical" horiz-adv-x="1568" unicode="√" d="M405 681l397 -830l560 2075h323v-140h-214l-611 -2236h-93l-491 981l-168 -75l-31 75z"/>
<glyph glyph-name="infinity" horiz-adv-x="1742" unicode="∞" d="M778 584q-56 96 -104 156t-101 93.5t-112 33.5t-106.5 -30t-75.5 -92.5t-28 -154.5q0 -78 17 -132t46 -88.5t67 -50t80 -15.5q86 0 163.5 68.5t153.5 211.5zM916 584q49 -95 95.5 -162.5t89 -105t85.5 -55t95 -17.5q74 0 129.5 41t85.5 120.5t30 187.5q0 96 -30 171.5 t-86 118t-130 42.5q-68 0 -121.5 -31t-109 -102t-133.5 -208zM847 458q-64 -108 -124 -175t-127 -102t-145 -35q-95 0 -168.5 58t-113 157.5t-39.5 220.5q0 123 44 226.5t119 160t168 56.5q79 0 139.5 -30.5t117 -95.5t129.5 -189q55 104 105 175.5t98.5 114.5t103.5 63.5 t128 20.5q112 0 196.5 -62.5t129 -170.5t44.5 -242q0 -150 -50 -270.5t-140.5 -186.5t-208.5 -66q-128 0 -223 89t-183 283z"/>
<glyph glyph-name="approxequal" d="M26 302q41 53 74.5 93t62 66.5t53.5 43.5t47.5 26.5t43.5 14t44 4.5q36 0 66 -10.5t59 -32t74 -68.5q37 -40 60.5 -60t47 -30.5t52.5 -10.5q35 0 60 12.5t54 42t73 86.5l85 -67q-59 -75 -102 -117.5t-91.5 -68.5t-101.5 -26q-39 0 -71 11t-60.5 33t-70.5 67 q-43 47 -66.5 66t-45 27t-47.5 8q-33 0 -62.5 -16t-60.5 -48t-93 -114zM146 757q59 76 104 120t92.5 68.5t101.5 24.5q36 0 66 -10.5t59 -32t74 -68.5q37 -40 60.5 -60t47 -30.5t52.5 -10.5q33 0 59.5 13t58.5 45.5t97 118.5l85 -67q-84 -109 -132 -155t-94 -69.5t-97 -23.5 q-39 0 -71 11t-60.5 33t-70.5 67q-43 47 -66.5 66t-45 27t-47.5 8q-29 0 -55 -12t-54.5 -38t-79.5 -93z" unicode="≈"/>
<glyph glyph-name="notequal" d="M476 310l-150 -280h-120l152 280h-269l30 135h310l152 280h-401l30 135h442l150 280h120l-153 -280h271l-30 -135h-311l-152 -280h402l-30 -135h-443z" unicode="≠"/>
<glyph glyph-name="lessequal" d="M33 28l30 135h818l-30 -135h-818zM158 632l30 140l918 378l-35 -160l-761 -298l628 -296l-30 -141z" unicode="≤"/>
<glyph glyph-name="greaterequal" d="M33 28l30 135h818l-30 -135h-818zM1021 772l-30 -140l-918 -378l36 160l761 298l-628 296l29 141z" unicode="≥"/>
<glyph glyph-name="lozenge" horiz-adv-x="1104" unicode="◊" d="M343 658l247 -576l237 556l-247 576zM984 648l-326 -727h-147l-325 727l325 727h147z"/>
<glyph glyph-name="glyph431" d="M486 1782l192 -257l-58 -59l-326 266l11 50h181z" horiz-adv-x="554"/>
<glyph glyph-name="glyph435" d="M817 1782l-11 -50l-425 -268l-50 71l268 247h218z" horiz-adv-x="554"/>
<glyph glyph-name="glyph439" d="M628 1780l161 -261l-66 -50l-180 182h-10l-263 -183l-52 62l274 250h136z" horiz-adv-x="554"/>
<glyph glyph-name="glyph443" d="M425 1468l-161 261l66 50l180 -182h10l263 183l52 -62l-274 -250h-136z" horiz-adv-x="554"/>
<glyph glyph-name="glyph448" d="M785 1720l69 -48q-50 -75 -88.5 -116t-70.5 -57t-71 -16q-23 0 -42 6t-35.5 16t-49.5 38q-30 24 -43 33t-25 13.5t-25 4.5q-25 0 -45 -9.5t-44 -34.5t-54 -67l-70 47q61 87 93 122t64.5 51.5t77.5 16.5q16 0 29.5 -3.5t26.5 -9.5t23 -13t39 -30q41 -34 60.5 -44.5 t39.5 -10.5q23 0 43 10t44 34t54 67z" horiz-adv-x="554"/>
<glyph glyph-name="glyph452" d="M452 1691l-38 -176h-165l38 176h165zM802 1691l-38 -176h-165l38 176h165z" horiz-adv-x="554"/>
<glyph glyph-name="glyph464" d="M404 1578q0 -42 21.5 -67t67.5 -25q48 0 84 28.5t53.5 72.5t17.5 85q0 44 -23 67.5t-65 23.5q-43 0 -79 -25t-56.5 -68t-20.5 -92zM482 1424q-86 0 -132.5 38.5t-46.5 109.5q0 46 16.5 94t53.5 84.5t87.5 55.5t107.5 19q90 0 135.5 -38.5t45.5 -110.5q0 -66 -31 -126 t-92 -93t-144 -33z" horiz-adv-x="554"/>
</font>
</defs>
</svg>
