<svg id="Layer_1" xmlns="http://www.w3.org/2000/svg" viewBox="0 0 96 89.1"><style>.st0{fill:#27aae1}</style><path class="st0" d="M2.8 82.1c0 1.8.7 3.4 2 4.8 1.3 1.3 2.9 2 4.8 2s3.5-.7 4.8-2l18.3-18.2c6.4 4.4 13.4 6.6 21.3 6.6 5.1 0 9.9-1 14.6-3 4.6-2 8.6-4.6 12-8 3.4-3.4 6-7.4 8-12s3-9.5 3-14.6-1-9.9-3-14.6c-2-4.6-4.6-8.6-8-12-3.4-3.4-7.4-6-12-8S59.1.1 54 .1s-9.9 1-14.6 3c-4.6 2-8.6 4.6-12 8s-6 7.4-8 12-3 9.5-3 14.6c0 7.8 2.2 14.9 6.6 21.3L4.8 77.3c-1.3 1.3-2 2.9-2 4.8zm27.3-44.4c0-6.6 2.3-12.2 7-16.9 4.7-4.7 10.3-7 16.9-7 6.6 0 12.2 2.3 16.9 7 4.7 4.7 7 10.3 7 16.9 0 6.6-2.3 12.2-7 16.9-4.7 4.7-10.3 7-16.9 7-6.6 0-12.2-2.3-16.9-7-4.6-4.7-7-10.3-7-16.9z"/></svg>